<svg xmlns="http://www.w3.org/2000/svg" xmlns:xlink="http://www.w3.org/1999/xlink" xmlns:lucid="lucid" width="2496" height="2156"><g transform="translate(136 600)" lucid:page-tab-id="0_0"><path d="M-500-1000h3000v3000H-500z" fill-opacity="0"/><path d="M500-572c0-4.42 3.58-8 8-8h364c4.42 0 8 3.58 8 8v248c0 4.42-3.58 8-8 8H508c-4.42 0-8-3.58-8-8z" fill="#fff"/><path d="M500-572c0-4.42 3.58-8 8-8h364c4.42 0 8 3.58 8 8v248c0 4.42-3.58 8-8 8H508c-4.42 0-8-3.58-8-8zM500-540h380M560-540v224M720-540v224" stroke="#333" fill="none"/><use xlink:href="#a" transform="matrix(1,0,0,1,510,-580) translate(11.2 32.888888888888886)"/><use xlink:href="#b" transform="matrix(1,0,0,1,505,-537.5) translate(13 19.799999999999997)"/><use xlink:href="#c" transform="matrix(1,0,0,1,565,-537.5) translate(0 19.799999999999997)"/><use xlink:href="#d" transform="matrix(1,0,0,1,725,-537.5) translate(0 19.799999999999997)"/><use xlink:href="#e" transform="matrix(1,0,0,1,565,-505.5) translate(0 19.799999999999997)"/><use xlink:href="#f" transform="matrix(1,0,0,1,725,-505.5) translate(0 19.799999999999997)"/><use xlink:href="#g" transform="matrix(1,0,0,1,565,-473.5) translate(0 20.599999999999998)"/><use xlink:href="#h" transform="matrix(1,0,0,1,725,-473.5) translate(0 20.599999999999998)"/><use xlink:href="#i" transform="matrix(1,0,0,1,505,-441.5) translate(0 19.799999999999997)"/><use xlink:href="#j" transform="matrix(1,0,0,1,565,-441.5) translate(0 19.799999999999997)"/><use xlink:href="#d" transform="matrix(1,0,0,1,725,-441.5) translate(0 19.799999999999997)"/><use xlink:href="#i" transform="matrix(1,0,0,1,505,-409.5) translate(13.524999999999999 19.799999999999997)"/><use xlink:href="#k" transform="matrix(1,0,0,1,565,-409.5) translate(0 19.799999999999997)"/><use xlink:href="#d" transform="matrix(1,0,0,1,725,-409.5) translate(0 19.799999999999997)"/><use xlink:href="#i" transform="matrix(1,0,0,1,505,-377.5) translate(0 19.799999999999997)"/><use xlink:href="#l" transform="matrix(1,0,0,1,565,-377.5) translate(0 19.799999999999997)"/><use xlink:href="#d" transform="matrix(1,0,0,1,725,-377.5) translate(0 19.799999999999997)"/><use xlink:href="#i" transform="matrix(1,0,0,1,505,-345.5) translate(0 19.799999999999997)"/><use xlink:href="#m" transform="matrix(1,0,0,1,565,-345.5) translate(0 19.799999999999997)"/><use xlink:href="#d" transform="matrix(1,0,0,1,725,-345.5) translate(0 19.799999999999997)"/><path d="M1220.5-476c0-4.42 3.58-8 8-8h364c4.42 0 8 3.58 8 8v120c0 4.42-3.58 8-8 8h-364c-4.42 0-8-3.58-8-8z" fill="#fff"/><path d="M1220.5-476c0-4.42 3.58-8 8-8h364c4.42 0 8 3.58 8 8v120c0 4.42-3.58 8-8 8h-364c-4.42 0-8-3.58-8-8zM1220.5-444h380M1280.5-444v96M1440.5-444v96" stroke="#333" fill="none"/><use xlink:href="#n" transform="matrix(1,0,0,1,1230.5,-484) translate(11.2 32.888888888888886)"/><use xlink:href="#b" transform="matrix(1,0,0,1,1225.5,-441.5) translate(13 19.799999999999997)"/><use xlink:href="#k" transform="matrix(1,0,0,1,1285.5,-441.5) translate(0 19.799999999999997)"/><use xlink:href="#d" transform="matrix(1,0,0,1,1445.5,-441.5) translate(0 19.799999999999997)"/><use xlink:href="#e" transform="matrix(1,0,0,1,1285.5,-409.5) translate(0 19.799999999999997)"/><use xlink:href="#f" transform="matrix(1,0,0,1,1445.5,-409.5) translate(0 19.799999999999997)"/><use xlink:href="#i" transform="matrix(1,0,0,1,1225.5,-377.5) translate(0 19.799999999999997)"/><use xlink:href="#j" transform="matrix(1,0,0,1,1285.5,-377.5) translate(0 19.799999999999997)"/><use xlink:href="#d" transform="matrix(1,0,0,1,1445.5,-377.5) translate(0 19.799999999999997)"/><path d="M500-172c0-4.42 3.58-8 8-8h364c4.42 0 8 3.58 8 8v88c0 4.42-3.58 8-8 8H508c-4.42 0-8-3.58-8-8z" fill="#fff"/><path d="M500-172c0-4.42 3.58-8 8-8h364c4.42 0 8 3.58 8 8v88c0 4.42-3.58 8-8 8H508c-4.42 0-8-3.58-8-8zM500-140h380M560-140v64M720-140v64" stroke="#333" fill="none"/><use xlink:href="#o" transform="matrix(1,0,0,1,510,-180) translate(11.2 32.888888888888886)"/><use xlink:href="#b" transform="matrix(1,0,0,1,505,-137.5) translate(13 19.799999999999997)"/><use xlink:href="#p" transform="matrix(1,0,0,1,565,-137.5) translate(0 19.799999999999997)"/><use xlink:href="#d" transform="matrix(1,0,0,1,725,-137.5) translate(0 19.799999999999997)"/><use xlink:href="#q" transform="matrix(1,0,0,1,565,-105.5) translate(0 19.799999999999997)"/><use xlink:href="#r" transform="matrix(1,0,0,1,725,-105.5) translate(0 19.799999999999997)"/><path d="M1720-340c0-4.42 3.58-8 8-8h364c4.42 0 8 3.58 8 8v88c0 4.42-3.58 8-8 8h-364c-4.42 0-8-3.58-8-8z" fill="#fff"/><path d="M1720-340c0-4.42 3.58-8 8-8h364c4.42 0 8 3.58 8 8v88c0 4.42-3.58 8-8 8h-364c-4.42 0-8-3.58-8-8zM1720-308h380M1780-308v64M1940-308v64" stroke="#333" fill="none"/><use xlink:href="#s" transform="matrix(1,0,0,1,1730,-348) translate(11.2 32.888888888888886)"/><use xlink:href="#i" transform="matrix(1,0,0,1,1725,-305.5) translate(0 19.799999999999997)"/><use xlink:href="#k" transform="matrix(1,0,0,1,1785,-305.5) translate(0 19.799999999999997)"/><use xlink:href="#d" transform="matrix(1,0,0,1,1945,-305.5) translate(0 19.799999999999997)"/><use xlink:href="#i" transform="matrix(1,0,0,1,1725,-273.5) translate(0 19.799999999999997)"/><use xlink:href="#t" transform="matrix(1,0,0,1,1785,-273.5) translate(0 19.799999999999997)"/><use xlink:href="#d" transform="matrix(1,0,0,1,1945,-273.5) translate(0 19.799999999999997)"/><path d="M1220.5-272c0-4.42 3.58-8 8-8h364c4.42 0 8 3.58 8 8v120c0 4.42-3.58 8-8 8h-364c-4.42 0-8-3.58-8-8z" fill="#fff"/><path d="M1220.5-272c0-4.42 3.58-8 8-8h364c4.42 0 8 3.58 8 8v120c0 4.42-3.58 8-8 8h-364c-4.42 0-8-3.58-8-8zM1220.5-240h380M1280.5-240v96M1440.5-240v96" stroke="#333" fill="none"/><use xlink:href="#u" transform="matrix(1,0,0,1,1230.5,-280) translate(11.2 32.888888888888886)"/><use xlink:href="#b" transform="matrix(1,0,0,1,1225.5,-237.5) translate(13 19.799999999999997)"/><use xlink:href="#v" transform="matrix(1,0,0,1,1285.5,-237.5) translate(0 19.799999999999997)"/><use xlink:href="#d" transform="matrix(1,0,0,1,1445.5,-237.5) translate(0 19.799999999999997)"/><use xlink:href="#w" transform="matrix(1,0,0,1,1285.5,-205.5) translate(0 19.799999999999997)"/><use xlink:href="#r" transform="matrix(1,0,0,1,1445.5,-205.5) translate(0 19.799999999999997)"/><use xlink:href="#x" transform="matrix(1,0,0,1,1285.5,-173.5) translate(0 19.799999999999997)"/><use xlink:href="#y" transform="matrix(1,0,0,1,1445.5,-173.5) translate(0 19.799999999999997)"/><path d="M600 614.13c0-4.42 3.58-8 8-8h364c4.42 0 8 3.58 8 8v88c0 4.42-3.58 8-8 8H608c-4.42 0-8-3.58-8-8z" fill="#fff"/><path d="M600 614.13c0-4.42 3.58-8 8-8h364c4.42 0 8 3.58 8 8v88c0 4.42-3.58 8-8 8H608c-4.42 0-8-3.58-8-8zM600 646.13h380M660 646.13v64M820 646.13v64" stroke="#333" fill="none"/><use xlink:href="#z" transform="matrix(1,0,0,1,610,606.1297936743267) translate(11.2 32.888888888888886)"/><use xlink:href="#A" transform="matrix(1,0,0,1,605,648.6297936743267) translate(0 19.799999999999997)"/><use xlink:href="#p" transform="matrix(1,0,0,1,665,648.6297936743267) translate(0 19.799999999999997)"/><use xlink:href="#d" transform="matrix(1,0,0,1,825,648.6297936743267) translate(0 19.799999999999997)"/><use xlink:href="#i" transform="matrix(1,0,0,1,605,680.6297936743267) translate(0 19.799999999999997)"/><use xlink:href="#B" transform="matrix(1,0,0,1,665,680.6297936743267) translate(0 19.799999999999997)"/><use xlink:href="#d" transform="matrix(1,0,0,1,825,680.6297936743267) translate(0 19.799999999999997)"/><path d="M589.5 471.54c0-4.42 3.58-8 8-8h364c4.42 0 8 3.58 8 8v88c0 4.42-3.58 8-8 8h-364c-4.42 0-8-3.58-8-8z" fill="#fff"/><path d="M589.5 471.54c0-4.42 3.58-8 8-8h364c4.42 0 8 3.58 8 8v88c0 4.42-3.58 8-8 8h-364c-4.42 0-8-3.58-8-8zM589.5 503.54h380M649.5 503.54v64M809.5 503.54v64" stroke="#333" fill="none"/><use xlink:href="#C" transform="matrix(1,0,0,1,599.5,463.5372807017543) translate(11.2 32.888888888888886)"/><use xlink:href="#A" transform="matrix(1,0,0,1,594.5,506.0372807017543) translate(0 19.799999999999997)"/><use xlink:href="#p" transform="matrix(1,0,0,1,654.5,506.0372807017543) translate(0 19.799999999999997)"/><use xlink:href="#d" transform="matrix(1,0,0,1,814.5,506.0372807017543) translate(0 19.799999999999997)"/><use xlink:href="#i" transform="matrix(1,0,0,1,594.5,538.0372807017543) translate(0 19.799999999999997)"/><use xlink:href="#D" transform="matrix(1,0,0,1,654.5,538.0372807017543) translate(0 19.799999999999997)"/><use xlink:href="#d" transform="matrix(1,0,0,1,814.5,538.0372807017543) translate(0 19.799999999999997)"/><path d="M-60 448c0-4.42 3.58-8 8-8h464c4.42 0 8 3.58 8 8v216c0 4.42-3.58 8-8 8H-52c-4.42 0-8-3.58-8-8z" fill="#fff"/><path d="M-60 448c0-4.42 3.58-8 8-8h464c4.42 0 8 3.58 8 8v216c0 4.42-3.58 8-8 8H-52c-4.42 0-8-3.58-8-8zM-60 480h480M0 480v192M210 480v192" stroke="#333" fill="none"/><use xlink:href="#E" transform="matrix(1,0,0,1,-50,440) translate(11.2 32.888888888888886)"/><use xlink:href="#b" transform="matrix(1,0,0,1,-55,482.5) translate(13 19.799999999999997)"/><use xlink:href="#p" transform="matrix(1,0,0,1,5,482.5) translate(0 19.799999999999997)"/><use xlink:href="#d" transform="matrix(1,0,0,1,215,482.5) translate(0 19.799999999999997)"/><use xlink:href="#e" transform="matrix(1,0,0,1,5,514.5) translate(0 19.799999999999997)"/><use xlink:href="#f" transform="matrix(1,0,0,1,215,514.5) translate(0 19.799999999999997)"/><use xlink:href="#i" transform="matrix(1,0,0,1,-55,546.5) translate(0 19.799999999999997)"/><use xlink:href="#j" transform="matrix(1,0,0,1,5,546.5) translate(0 19.799999999999997)"/><use xlink:href="#d" transform="matrix(1,0,0,1,215,546.5) translate(0 19.799999999999997)"/><use xlink:href="#i" transform="matrix(1,0,0,1,-55,578.5) translate(13.524999999999999 19.799999999999997)"/><use xlink:href="#F" transform="matrix(1,0,0,1,5,578.5) translate(0 19.799999999999997)"/><use xlink:href="#d" transform="matrix(1,0,0,1,215,578.5) translate(0 19.799999999999997)"/><use xlink:href="#i" transform="matrix(1,0,0,1,-55,610.5) translate(0 19.799999999999997)"/><use xlink:href="#G" transform="matrix(1,0,0,1,5,610.5) translate(0 19.799999999999997)"/><use xlink:href="#d" transform="matrix(1,0,0,1,215,610.5) translate(0 19.799999999999997)"/><use xlink:href="#i" transform="matrix(1,0,0,1,-55,642.5) translate(0 19.799999999999997)"/><use xlink:href="#H" transform="matrix(1,0,0,1,5,642.5) translate(0 19.799999999999997)"/><use xlink:href="#d" transform="matrix(1,0,0,1,215,642.5) translate(0 19.799999999999997)"/><path d="M20 960c0-4.42 3.58-8 8-8h364c4.42 0 8 3.58 8 8v120c0 4.42-3.58 8-8 8H28c-4.42 0-8-3.58-8-8z" fill="#fff"/><path d="M20 960c0-4.42 3.58-8 8-8h364c4.42 0 8 3.58 8 8v120c0 4.42-3.58 8-8 8H28c-4.42 0-8-3.58-8-8zM20 992h380M80 992v96M240 992v96" stroke="#333" fill="none"/><use xlink:href="#I" transform="matrix(1,0,0,1,30,952) translate(11.2 32.888888888888886)"/><use xlink:href="#A" transform="matrix(1,0,0,1,25,994.5) translate(0 19.799999999999997)"/><use xlink:href="#p" transform="matrix(1,0,0,1,85,994.5) translate(0 19.799999999999997)"/><use xlink:href="#d" transform="matrix(1,0,0,1,245,994.5) translate(0 19.799999999999997)"/><use xlink:href="#i" transform="matrix(1,0,0,1,25,1026.5) translate(0 19.799999999999997)"/><use xlink:href="#J" transform="matrix(1,0,0,1,85,1026.5) translate(0 19.799999999999997)"/><use xlink:href="#K" transform="matrix(1,0,0,1,245,1026.5) translate(0 20.599999999999998)"/><use xlink:href="#i" transform="matrix(1,0,0,1,25,1058.5) translate(13.524999999999999 19.799999999999997)"/><use xlink:href="#L" transform="matrix(1,0,0,1,85,1058.5) translate(0 19.799999999999997)"/><use xlink:href="#d" transform="matrix(1,0,0,1,245,1058.5) translate(0 19.799999999999997)"/><path d="M500 920c0-4.42 3.58-8 8-8h364c4.42 0 8 3.58 8 8v88c0 4.42-3.58 8-8 8H508c-4.42 0-8-3.58-8-8z" fill="#fff"/><path d="M500 920c0-4.42 3.58-8 8-8h364c4.42 0 8 3.58 8 8v88c0 4.42-3.58 8-8 8H508c-4.42 0-8-3.58-8-8zM500 952h380M560 952v64M720 952v64" stroke="#333" fill="none"/><use xlink:href="#M" transform="matrix(1,0,0,1,510,912.0000000000001) translate(11.2 32.888888888888886)"/><use xlink:href="#A" transform="matrix(1,0,0,1,505,954.5000000000001) translate(0 19.799999999999997)"/><use xlink:href="#p" transform="matrix(1,0,0,1,565,954.5000000000001) translate(0 19.799999999999997)"/><use xlink:href="#K" transform="matrix(1,0,0,1,725,954.5000000000001) translate(0 20.599999999999998)"/><use xlink:href="#i" transform="matrix(1,0,0,1,505,986.5000000000001) translate(0 19.799999999999997)"/><use xlink:href="#J" transform="matrix(1,0,0,1,565,986.5000000000001) translate(0 19.799999999999997)"/><use xlink:href="#d" transform="matrix(1,0,0,1,725,986.5000000000001) translate(0 19.799999999999997)"/><path d="M479.5 968H462c-6.63 0-12 5.37-12 12v48c0 6.63-5.37 12-12 12h-18.1" stroke="#333" fill="none"/><path d="M479.5 958v20M499.5 968h-20" stroke="#333" fill="#fff"/><path d="M400.72 1030l20 10-20 10" stroke="#333" fill="#fff" fill-opacity="0"/><path d="M400.72 1040h20" stroke="#333" fill="#fff"/><path d="M500 1080c0-4.42 3.58-8 8-8h364c4.42 0 8 3.58 8 8v88c0 4.42-3.58 8-8 8H508c-4.42 0-8-3.58-8-8z" fill="#fff"/><path d="M500 1080c0-4.42 3.58-8 8-8h364c4.42 0 8 3.58 8 8v88c0 4.42-3.58 8-8 8H508c-4.42 0-8-3.58-8-8zM500 1112h380M560 1112v64M720 1112v64" stroke="#333" fill="none"/><use xlink:href="#N" transform="matrix(1,0,0,1,510,1072) translate(11.2 32.888888888888886)"/><use xlink:href="#A" transform="matrix(1,0,0,1,505,1114.5) translate(0 19.799999999999997)"/><use xlink:href="#p" transform="matrix(1,0,0,1,565,1114.5) translate(0 19.799999999999997)"/><use xlink:href="#d" transform="matrix(1,0,0,1,725,1114.5) translate(0 19.799999999999997)"/><use xlink:href="#O" transform="matrix(1,0,0,1,565,1146.5) translate(0 19.799999999999997)"/><use xlink:href="#d" transform="matrix(1,0,0,1,725,1146.5) translate(0 19.799999999999997)"/><path d="M479.5 1128H462c-6.63 0-12-5.37-12-12v-32c0-6.63-5.37-12-12-12h-18.1" stroke="#333" fill="none"/><path d="M479.5 1118v20M499.5 1128h-20" stroke="#333" fill="#fff"/><path d="M400.72 1062l20 10-20 10" stroke="#333" fill="#fff" fill-opacity="0"/><path d="M400.72 1072h20" stroke="#333" fill="#fff"/><path d="M500 1260c0-4.42 3.58-8 8-8h364c4.42 0 8 3.58 8 8v120c0 4.42-3.58 8-8 8H508c-4.42 0-8-3.58-8-8z" fill="#fff"/><path d="M500 1260c0-4.42 3.58-8 8-8h364c4.42 0 8 3.58 8 8v120c0 4.42-3.58 8-8 8H508c-4.42 0-8-3.58-8-8zM500 1292h380M560 1292v96M720 1292v96" stroke="#333" fill="none"/><use xlink:href="#P" transform="matrix(1,0,0,1,510,1252) translate(11.2 32.888888888888886)"/><use xlink:href="#A" transform="matrix(1,0,0,1,505,1294.5) translate(0 19.799999999999997)"/><use xlink:href="#p" transform="matrix(1,0,0,1,565,1294.5) translate(0 19.799999999999997)"/><use xlink:href="#d" transform="matrix(1,0,0,1,725,1294.5) translate(0 19.799999999999997)"/><use xlink:href="#i" transform="matrix(1,0,0,1,505,1326.5) translate(13.524999999999999 19.799999999999997)"/><use xlink:href="#L" transform="matrix(1,0,0,1,565,1326.5) translate(0 19.799999999999997)"/><use xlink:href="#d" transform="matrix(1,0,0,1,725,1326.5) translate(0 19.799999999999997)"/><use xlink:href="#i" transform="matrix(1,0,0,1,505,1358.5) translate(0 19.799999999999997)"/><use xlink:href="#Q" transform="matrix(1,0,0,1,565,1358.5) translate(0 19.799999999999997)"/><use xlink:href="#d" transform="matrix(1,0,0,1,725,1358.5) translate(0 19.799999999999997)"/><path d="M900.5 1340.05h8c6.63 0 12-5.37 12-12V1140c0-6.63-5.37-12-12-12h-8" stroke="#333" fill="none"/><path d="M900.5 1350.05v-20M880.5 1340.05h20M900.5 1138v-20M880.5 1128h20" stroke="#333" fill="#fff"/><path d="M500 1440c0-4.42 3.58-8 8-8h364c4.42 0 8 3.58 8 8v88c0 4.42-3.58 8-8 8H508c-4.42 0-8-3.58-8-8z" fill="#fff"/><path d="M500 1440c0-4.42 3.58-8 8-8h364c4.42 0 8 3.58 8 8v88c0 4.42-3.58 8-8 8H508c-4.42 0-8-3.58-8-8zM500 1472h380M560 1472v64M720 1472v64" stroke="#333" fill="none"/><use xlink:href="#R" transform="matrix(1,0,0,1,510,1432) translate(11.2 32.888888888888886)"/><use xlink:href="#b" transform="matrix(1,0,0,1,505,1474.5) translate(13 19.799999999999997)"/><use xlink:href="#p" transform="matrix(1,0,0,1,565,1474.5) translate(0 19.799999999999997)"/><use xlink:href="#d" transform="matrix(1,0,0,1,725,1474.5) translate(0 19.799999999999997)"/><use xlink:href="#S" transform="matrix(1,0,0,1,565,1506.5) translate(0 19.799999999999997)"/><use xlink:href="#r" transform="matrix(1,0,0,1,725,1506.5) translate(0 19.799999999999997)"/><path d="M900.5 1488h8c6.63 0 12-5.37 12-12v-92.03c0-6.62-5.37-12-12-12h-8" stroke="#333" fill="none"/><path d="M900.5 1498v-20M880.5 1488h20M900.5 1381.97v-20M880.5 1371.97h20" stroke="#333" fill="#fff"/><path d="M1220.5 1269.5c0-4.4 3.58-8 8-8h364c4.42 0 8 3.6 8 8v248c0 4.43-3.58 8-8 8h-364c-4.42 0-8-3.57-8-8z" fill="#fff"/><path d="M1220.5 1269.5c0-4.4 3.58-8 8-8h364c4.42 0 8 3.6 8 8v248c0 4.43-3.58 8-8 8h-364c-4.42 0-8-3.57-8-8zM1220.5 1301.5h380M1280.5 1301.5v224M1440.5 1301.5v224" stroke="#333" fill="none"/><use xlink:href="#T" transform="matrix(1,0,0,1,1230.5,1261.5109649122808) translate(11.2 32.888888888888886)"/><use xlink:href="#b" transform="matrix(1,0,0,1,1225.5,1304.0109649122808) translate(13 19.799999999999997)"/><use xlink:href="#p" transform="matrix(1,0,0,1,1285.5,1304.0109649122808) translate(0 19.799999999999997)"/><use xlink:href="#d" transform="matrix(1,0,0,1,1445.5,1304.0109649122808) translate(0 19.799999999999997)"/><use xlink:href="#U" transform="matrix(1,0,0,1,1285.5,1336.0109649122808) translate(0 19.799999999999997)"/><use xlink:href="#K" transform="matrix(1,0,0,1,1445.5,1336.0109649122808) translate(0 20.599999999999998)"/><use xlink:href="#V" transform="matrix(1,0,0,1,1285.5,1368.0109649122808) translate(0 20.599999999999998)"/><use xlink:href="#K" transform="matrix(1,0,0,1,1445.5,1368.0109649122808) translate(0 20.599999999999998)"/><use xlink:href="#w" transform="matrix(1,0,0,1,1285.5,1400.0109649122808) translate(0 19.799999999999997)"/><use xlink:href="#K" transform="matrix(1,0,0,1,1445.5,1400.0109649122808) translate(0 20.599999999999998)"/><use xlink:href="#W" transform="matrix(1,0,0,1,1285.5,1432.0109649122808) translate(0 19.799999999999997)"/><use xlink:href="#K" transform="matrix(1,0,0,1,1445.5,1432.0109649122808) translate(0 20.599999999999998)"/><use xlink:href="#i" transform="matrix(1,0,0,1,1225.5,1464.0109649122808) translate(0 19.799999999999997)"/><use xlink:href="#X" transform="matrix(1,0,0,1,1285.5,1464.0109649122808) translate(0 19.799999999999997)"/><use xlink:href="#K" transform="matrix(1,0,0,1,1445.5,1464.0109649122808) translate(0 20.599999999999998)"/><use xlink:href="#i" transform="matrix(1,0,0,1,1225.5,1496.0109649122808) translate(0 19.799999999999997)"/><use xlink:href="#Y" transform="matrix(1,0,0,1,1285.5,1496.0109649122808) translate(0 19.799999999999997)"/><use xlink:href="#d" transform="matrix(1,0,0,1,1445.5,1496.0109649122808) translate(0 19.799999999999997)"/><path d="M1200 1477.5H972c-6.63 0-12-5.36-12-12V980c0-6.62-5.37-12-12-12h-47.5" stroke="#333" fill="none"/><path d="M1210 1467.5v20M1220 1477.5h-20M1200 1467.5v20M890.5 978v-20M880.5 968h20M900.5 978v-20" stroke="#333" fill="#fff"/><path d="M1220.5 643.86c0-4.42 3.58-8 8-8h364c4.42 0 8 3.58 8 8v280c0 4.42-3.58 8-8 8h-364c-4.42 0-8-3.58-8-8z" fill="#fff"/><path d="M1220.5 643.86c0-4.42 3.58-8 8-8h364c4.42 0 8 3.58 8 8v280c0 4.42-3.58 8-8 8h-364c-4.42 0-8-3.58-8-8zM1220.5 675.86h380M1280.5 675.86v256M1440.5 675.86v256" stroke="#333" fill="none"/><use xlink:href="#Z" transform="matrix(1,0,0,1,1230.5,635.8583333333333) translate(11.2 32.888888888888886)"/><use xlink:href="#b" transform="matrix(1,0,0,1,1225.5,678.3583333333333) translate(13 19.799999999999997)"/><use xlink:href="#p" transform="matrix(1,0,0,1,1285.5,678.3583333333333) translate(0 19.799999999999997)"/><use xlink:href="#d" transform="matrix(1,0,0,1,1445.5,678.3583333333333) translate(0 19.799999999999997)"/><use xlink:href="#U" transform="matrix(1,0,0,1,1285.5,710.3583333333333) translate(0 19.799999999999997)"/><use xlink:href="#K" transform="matrix(1,0,0,1,1445.5,710.3583333333333) translate(0 20.599999999999998)"/><use xlink:href="#V" transform="matrix(1,0,0,1,1285.5,742.3583333333333) translate(0 20.599999999999998)"/><use xlink:href="#K" transform="matrix(1,0,0,1,1445.5,742.3583333333333) translate(0 20.599999999999998)"/><use xlink:href="#w" transform="matrix(1,0,0,1,1285.5,774.3583333333333) translate(0 19.799999999999997)"/><use xlink:href="#K" transform="matrix(1,0,0,1,1445.5,774.3583333333333) translate(0 20.599999999999998)"/><use xlink:href="#W" transform="matrix(1,0,0,1,1285.5,806.3583333333333) translate(0 19.799999999999997)"/><use xlink:href="#K" transform="matrix(1,0,0,1,1445.5,806.3583333333333) translate(0 20.599999999999998)"/><use xlink:href="#i" transform="matrix(1,0,0,1,1225.5,838.3583333333333) translate(13.524999999999999 19.799999999999997)"/><use xlink:href="#aa" transform="matrix(1,0,0,1,1285.5,838.3583333333333) translate(0 19.799999999999997)"/><use xlink:href="#d" transform="matrix(1,0,0,1,1445.5,838.3583333333333) translate(0 19.799999999999997)"/><use xlink:href="#i" transform="matrix(1,0,0,1,1225.5,870.3583333333333) translate(0 19.799999999999997)"/><use xlink:href="#X" transform="matrix(1,0,0,1,1285.5,870.3583333333333) translate(0 19.799999999999997)"/><use xlink:href="#K" transform="matrix(1,0,0,1,1445.5,870.3583333333333) translate(0 20.599999999999998)"/><use xlink:href="#i" transform="matrix(1,0,0,1,1225.5,902.3583333333333) translate(0 17.1)"/><use xlink:href="#Y" transform="matrix(1,0,0,1,1285.5,902.3583333333333) translate(0 17.1)"/><use xlink:href="#d" transform="matrix(1,0,0,1,1445.5,902.3583333333333) translate(0 17.1)"/><path d="M1200 894.34H932c-6.63 0-12 5.37-12 12V956c0 6.64-5.37 12-12 12h-8.1" stroke="#333" fill="none"/><path d="M1200 884.34v20M1220 894.34h-20" stroke="#333" fill="#fff"/><path d="M880.72 958l20 10-20 10" stroke="#333" fill="#fff" fill-opacity="0"/><path d="M880.72 968h20" stroke="#333" fill="#fff"/><path d="M1220 1068c0-4.42 3.58-8 8-8h364c4.42 0 8 3.58 8 8v88c0 4.42-3.58 8-8 8h-364c-4.42 0-8-3.58-8-8z" fill="#fff"/><path d="M1220 1068c0-4.42 3.58-8 8-8h364c4.42 0 8 3.58 8 8v88c0 4.42-3.58 8-8 8h-364c-4.42 0-8-3.58-8-8zM1220 1100h380M1280 1100v64M1440 1100v64" stroke="#333" fill="none"/><use xlink:href="#ab" transform="matrix(1,0,0,1,1230,1060) translate(11.2 32.888888888888886)"/><use xlink:href="#A" transform="matrix(1,0,0,1,1225,1102.5) translate(0 19.799999999999997)"/><use xlink:href="#p" transform="matrix(1,0,0,1,1285,1102.5) translate(0 19.799999999999997)"/><use xlink:href="#d" transform="matrix(1,0,0,1,1445,1102.5) translate(0 19.799999999999997)"/><use xlink:href="#ac" transform="matrix(1,0,0,1,1285,1134.5) translate(0 19.799999999999997)"/><use xlink:href="#d" transform="matrix(1,0,0,1,1445,1134.5) translate(0 19.799999999999997)"/><path d="M1200 921.44h-19.95c-.03 0-.05.02-.05.04 0 .03-.02.05-.05.05h-9.9c-.03 0-.05-.02-.05-.05 0-.02-.02-.04-.05-.04H1165c-2.76 0-5 2.23-5 5V1104c0 6.63 5.37 12 12 12h27.5" stroke="#333" fill="none"/><path d="M1219.78 931.44l-20-10 20-10" stroke="#333" fill="#fff" fill-opacity="0"/><path d="M1219.78 921.44h-20M1199.78 911.44v20M1199.5 1106v20M1219.5 1116h-20" stroke="#333" fill="#fff"/><path d="M1200 1509.5h-68c-6.63 0-12-5.36-12-12V1128c0-6.63 5.37-12 12-12h67.5" stroke="#333" fill="none"/><path d="M1219.78 1519.5l-20-10 20-10" stroke="#333" fill="#fff" fill-opacity="0"/><path d="M1219.78 1509.5h-20M1199.78 1499.5v20M1199.5 1106v20M1219.5 1116h-20" stroke="#333" fill="#fff"/><path d="M1679.5 788c0-4.42 3.58-8 8-8h364c4.42 0 8 3.58 8 8v88c0 4.42-3.58 8-8 8h-364c-4.42 0-8-3.58-8-8z" fill="#fff"/><path d="M1679.5 788c0-4.42 3.58-8 8-8h364c4.42 0 8 3.58 8 8v88c0 4.42-3.58 8-8 8h-364c-4.42 0-8-3.58-8-8zM1679.5 820h380M1739.5 820v64M1899.5 820v64" stroke="#333" fill="none"/><use xlink:href="#ad" transform="matrix(1,0,0,1,1689.5,780) translate(11.2 32.888888888888886)"/><use xlink:href="#b" transform="matrix(1,0,0,1,1684.5,822.5) translate(13 19.799999999999997)"/><use xlink:href="#p" transform="matrix(1,0,0,1,1744.5,822.5) translate(0 19.799999999999997)"/><use xlink:href="#d" transform="matrix(1,0,0,1,1904.5,822.5) translate(0 19.799999999999997)"/><use xlink:href="#w" transform="matrix(1,0,0,1,1744.5,854.5) translate(0 19.799999999999997)"/><use xlink:href="#K" transform="matrix(1,0,0,1,1904.5,854.5) translate(0 20.599999999999998)"/><path d="M1659 836h-7c-6.63 0-12 5.37-12 12v1c0 6.6-5.37 12-12 12h-7" stroke="#333" fill="none"/><path d="M1669 826v20M1679 836h-20M1659 826v20M1611 871v-20M1601 861h20M1621 871v-20" stroke="#333" fill="#fff"/><path d="M1860 296c0-4.42 3.58-8 8-8h464c4.42 0 8 3.58 8 8v152c0 4.42-3.58 8-8 8h-464c-4.42 0-8-3.58-8-8z" fill="#fff"/><path d="M1860 296c0-4.42 3.58-8 8-8h464c4.42 0 8 3.58 8 8v152c0 4.42-3.58 8-8 8h-464c-4.42 0-8-3.58-8-8zM1860 328h480M1920 328v128M2130 328v128" stroke="#333" fill="none"/><use xlink:href="#ae" transform="matrix(1,0,0,1,1870,288) translate(11.2 32.888888888888886)"/><use xlink:href="#b" transform="matrix(1,0,0,1,1865,330.5) translate(13 19.799999999999997)"/><use xlink:href="#p" transform="matrix(1,0,0,1,1925,330.5) translate(0 19.799999999999997)"/><use xlink:href="#d" transform="matrix(1,0,0,1,2135,330.5) translate(0 19.799999999999997)"/><use xlink:href="#e" transform="matrix(1,0,0,1,1925,362.5) translate(0 19.799999999999997)"/><use xlink:href="#f" transform="matrix(1,0,0,1,2135,362.5) translate(0 19.799999999999997)"/><use xlink:href="#i" transform="matrix(1,0,0,1,1865,394.5) translate(0 19.799999999999997)"/><use xlink:href="#j" transform="matrix(1,0,0,1,1925,394.5) translate(0 19.799999999999997)"/><use xlink:href="#d" transform="matrix(1,0,0,1,2135,394.5) translate(0 19.799999999999997)"/><use xlink:href="#i" transform="matrix(1,0,0,1,1865,426.5) translate(0 19.799999999999997)"/><use xlink:href="#B" transform="matrix(1,0,0,1,1925,426.5) translate(0 19.799999999999997)"/><use xlink:href="#d" transform="matrix(1,0,0,1,2135,426.5) translate(0 19.799999999999997)"/><path d="M1219.5-72c0-4.42 3.58-8 8-8h364c4.42 0 8 3.58 8 8v248c0 4.42-3.58 8-8 8h-364c-4.42 0-8-3.58-8-8z" fill="#fff"/><path d="M1219.5-72c0-4.42 3.58-8 8-8h364c4.42 0 8 3.58 8 8v248c0 4.42-3.58 8-8 8h-364c-4.42 0-8-3.58-8-8zM1219.5-40h380M1279.5-40v224M1439.5-40v224" stroke="#333" fill="none"/><use xlink:href="#af" transform="matrix(1,0,0,1,1229.5,-80) translate(11.2 32.888888888888886)"/><use xlink:href="#b" transform="matrix(1,0,0,1,1224.5,-37.5) translate(13 19.799999999999997)"/><use xlink:href="#p" transform="matrix(1,0,0,1,1284.5,-37.5) translate(0 19.799999999999997)"/><use xlink:href="#d" transform="matrix(1,0,0,1,1444.5,-37.5) translate(0 19.799999999999997)"/><use xlink:href="#U" transform="matrix(1,0,0,1,1284.5,-5.5) translate(0 19.799999999999997)"/><use xlink:href="#K" transform="matrix(1,0,0,1,1444.5,-5.5) translate(0 20.599999999999998)"/><use xlink:href="#V" transform="matrix(1,0,0,1,1284.5,26.5) translate(0 20.599999999999998)"/><use xlink:href="#K" transform="matrix(1,0,0,1,1444.5,26.5) translate(0 20.599999999999998)"/><use xlink:href="#w" transform="matrix(1,0,0,1,1284.5,58.5) translate(0 19.799999999999997)"/><use xlink:href="#K" transform="matrix(1,0,0,1,1444.5,58.5) translate(0 20.599999999999998)"/><use xlink:href="#W" transform="matrix(1,0,0,1,1284.5,90.5) translate(0 19.799999999999997)"/><use xlink:href="#K" transform="matrix(1,0,0,1,1444.5,90.5) translate(0 20.599999999999998)"/><use xlink:href="#ag" transform="matrix(1,0,0,1,1284.5,122.5) translate(0 19.799999999999997)"/><use xlink:href="#ah" transform="matrix(1,0,0,1,1444.5,122.5) translate(0 19.799999999999997)"/><use xlink:href="#i" transform="matrix(1,0,0,1,1224.5,154.5) translate(0 19.799999999999997)"/><use xlink:href="#X" transform="matrix(1,0,0,1,1284.5,154.5) translate(0 19.799999999999997)"/><use xlink:href="#K" transform="matrix(1,0,0,1,1444.5,154.5) translate(0 20.599999999999998)"/><path d="M1199 168h-57c-6.63 0-12 5.37-12 12v776c0 6.64-5.37 12-12 12H900.5" stroke="#333" fill="none"/><path d="M1209 158v20M1219 168h-20M1199 158v20M890.5 978v-20M880.5 968h20M900.5 978v-20" stroke="#333" fill="#fff"/><path d="M1219.5 268c0-4.42 3.58-8 8-8h464c4.42 0 8 3.58 8 8v120c0 4.42-3.58 8-8 8h-464c-4.42 0-8-3.58-8-8z" fill="#fff"/><path d="M1219.5 268c0-4.42 3.58-8 8-8h464c4.42 0 8 3.58 8 8v120c0 4.42-3.58 8-8 8h-464c-4.42 0-8-3.58-8-8zM1219.5 300h480M1279.5 300v96M1489.5 300v96" stroke="#333" fill="none"/><use xlink:href="#ai" transform="matrix(1,0,0,1,1229.5,260) translate(11.2 32.888888888888886)"/><use xlink:href="#b" transform="matrix(1,0,0,1,1224.5,302.5) translate(13 19.799999999999997)"/><use xlink:href="#p" transform="matrix(1,0,0,1,1284.5,302.5) translate(0 19.799999999999997)"/><use xlink:href="#d" transform="matrix(1,0,0,1,1494.5,302.5) translate(0 19.799999999999997)"/><use xlink:href="#i" transform="matrix(1,0,0,1,1224.5,334.5) translate(0 19.799999999999997)"/><use xlink:href="#j" transform="matrix(1,0,0,1,1284.5,334.5) translate(0 19.799999999999997)"/><use xlink:href="#d" transform="matrix(1,0,0,1,1494.5,334.5) translate(0 19.799999999999997)"/><use xlink:href="#i" transform="matrix(1,0,0,1,1224.5,366.5) translate(0 19.799999999999997)"/><use xlink:href="#aj" transform="matrix(1,0,0,1,1284.5,366.5) translate(0 19.799999999999997)"/><use xlink:href="#d" transform="matrix(1,0,0,1,1494.5,366.5) translate(0 19.799999999999997)"/><path d="M1219.5 464c0-4.42 3.58-8 8-8h464c4.42 0 8 3.58 8 8v88c0 4.42-3.58 8-8 8h-464c-4.42 0-8-3.58-8-8z" fill="#fff"/><path d="M1219.5 464c0-4.42 3.58-8 8-8h464c4.42 0 8 3.58 8 8v88c0 4.42-3.58 8-8 8h-464c-4.42 0-8-3.58-8-8zM1219.5 496h480M1279.5 496v64M1489.5 496v64" stroke="#333" fill="none"/><use xlink:href="#ak" transform="matrix(1,0,0,1,1229.5,456) translate(11.2 32.888888888888886)"/><use xlink:href="#b" transform="matrix(1,0,0,1,1224.5,498.5) translate(13 19.799999999999997)"/><use xlink:href="#p" transform="matrix(1,0,0,1,1284.5,498.5) translate(0 19.799999999999997)"/><use xlink:href="#d" transform="matrix(1,0,0,1,1494.5,498.5) translate(0 19.799999999999997)"/><use xlink:href="#i" transform="matrix(1,0,0,1,1224.5,530.5) translate(0 19.799999999999997)"/><use xlink:href="#al" transform="matrix(1,0,0,1,1284.5,530.5) translate(0 19.799999999999997)"/><use xlink:href="#r" transform="matrix(1,0,0,1,1494.5,530.5) translate(0 19.799999999999997)"/><path d="M1720 380.1h8c6.63 0 12 5.38 12 12V500c0 6.63-5.37 12-12 12h-8.6" stroke="#333" fill="none"/><path d="M1720 390.1v-20M1700 380.1h20" stroke="#333" fill="#fff"/><path d="M1700.22 502l20 10-20 10" stroke="#333" fill="#fff" fill-opacity="0"/><path d="M1700.22 512h20" stroke="#333" fill="#fff"/><path d="M1620-24h108c6.63 0 12 5.37 12 12v348.04c0 6.63-5.37 12-12 12h-8.6" stroke="#333" fill="none"/><path d="M1620-14v-20M1600-24h20" stroke="#333" fill="#fff"/><path d="M1700.22 338.04l20 10-20 10" stroke="#333" fill="#fff" fill-opacity="0"/><path d="M1700.22 348.04h20" stroke="#333" fill="#fff"/><path d="M1621 694.22h198c6.63 0 12-5.37 12-12V449.1c0-5.03 4.07-9.1 9.1-9.1" stroke="#333" fill="none"/><path d="M1621 704.22v-20M1601 694.22h20" stroke="#333" fill="#fff"/><path d="M1859.28 450l-20-10 20-10" stroke="#333" fill="#fff" fill-opacity="0"/><path d="M1859.28 440h-20" stroke="#333" fill="#fff"/><path d="M1620-24h168c6.63 0 12 5.37 12 12v344c0 6.63 5.37 12 12 12h28.1" stroke="#333" fill="none"/><path d="M1620-14v-20M1600-24h20" stroke="#333" fill="#fff"/><path d="M1859.28 354l-20-10 20-10" stroke="#333" fill="#fff" fill-opacity="0"/><path d="M1859.28 344h-20" stroke="#333" fill="#fff"/><path d="M440.5 624h52.25c6.63 0 12-5.37 12-12v-80.45c0-6.63 5.37-12 12-12H569" stroke="#333" fill="none"/><path d="M440.5 634v-20M420.5 624h20" stroke="#333" fill="#fff"/><path d="M588.78 529.55l-20-10 20-10" stroke="#333" fill="#fff" fill-opacity="0"/><path d="M588.78 519.55h-20M568.78 509.55v20" stroke="#333" fill="#fff"/><path d="M440.5 656h36.68c1.7 0 3.07 1.37 3.07 3.07 0 1.7 1.37 3.07 3.07 3.07h96.18" stroke="#333" fill="none"/><path d="M440.5 666v-20M420.5 656h20" stroke="#333" fill="#fff"/><path d="M599.28 672.14l-20-10 20-10" stroke="#333" fill="#fff" fill-opacity="0"/><path d="M599.28 662.14h-20M579.28 652.14v20" stroke="#333" fill="#fff"/><path d="M1200 1317.5h-128.5c-6.63 0-12-5.36-12-12V531.56c0-6.63-5.37-12-12-12h-58.1" stroke="#333" fill="none"/><path d="M1200 1307.5v20M1220 1317.5h-20" stroke="#333" fill="#fff"/><path d="M970.22 509.55l20 10-20 10" stroke="#333" fill="#fff" fill-opacity="0"/><path d="M970.22 519.55h20" stroke="#333" fill="#fff"/><path d="M1200 694.22H999.9" stroke="#333" fill="none"/><path d="M1200 684.22v20M1220 694.22h-20" stroke="#333" fill="#fff"/><path d="M980.72 684.22l20 10-20 10" stroke="#333" fill="#fff" fill-opacity="0"/><path d="M980.72 694.22h20" stroke="#333" fill="#fff"/><path d="M1199-24H462c-6.63 0-12 5.37-12 12v561.9c0 5.58-4.52 10.1-10.1 10.1" stroke="#333" fill="none"/><path d="M1199-34v20M1219-24h-20" stroke="#333" fill="#fff"/><path d="M420.72 550l20 10-20 10" stroke="#333" fill="#fff" fill-opacity="0"/><path d="M420.72 560h20" stroke="#333" fill="#fff"/><path d="M1199-24h-37c-6.63 0-12-5.37-12-12v-316c0-6.63 5.37-12 12-12h38" stroke="#333" fill="none"/><path d="M1209-34v20M1219-24h-20M1199-34v20M1210-374v20M1220-364h-20M1200-374v20" stroke="#333" fill="#fff"/><path d="M1621-428h27.25c6.63 0 12 5.37 12 12v112c0 6.64 5.37 12 12 12h27.84" stroke="#333" fill="none"/><path d="M1621-418v-20M1601-428h20" stroke="#333" fill="#fff"/><path d="M1719.28-282l-20-10 20-10" stroke="#333" fill="#fff" fill-opacity="0"/><path d="M1719.28-292h-20" stroke="#333" fill="#fff"/><path d="M1621-224h27.25c6.63 0 12-5.37 12-12v-11.9c0-6.63 5.37-12 12-12h27.84" stroke="#333" fill="none"/><path d="M1621-214v-20M1601-224h20" stroke="#333" fill="#fff"/><path d="M1719.28-249.9l-20-10 20-10" stroke="#333" fill="#fff" fill-opacity="0"/><path d="M1719.28-259.9h-20" stroke="#333" fill="#fff"/><path d="M900.5-396H1187c6.63 0 12-5.37 12-12v-19c0-.55.45-1 1-1" stroke="#333" fill="none"/><path d="M890.5-386v-20M880.5-396h20M900.5-386v-20M1210-438v20M1220-428h-20M1200-438v20" stroke="#333" fill="#fff"/><path d="M680 160c0-4.42 3.58-8 8-8h364c4.42 0 8 3.58 8 8v120c0 4.42-3.58 8-8 8H688c-4.42 0-8-3.58-8-8z" fill="#fff"/><path d="M680 160c0-4.42 3.58-8 8-8h364c4.42 0 8 3.58 8 8v120c0 4.42-3.58 8-8 8H688c-4.42 0-8-3.58-8-8zM680 192h380M740 192v96M900 192v96" stroke="#333" fill="none"/><use xlink:href="#am" transform="matrix(1,0,0,1,690,152) translate(11.2 32.888888888888886)"/><use xlink:href="#A" transform="matrix(1,0,0,1,685,194.5) translate(0 19.799999999999997)"/><use xlink:href="#p" transform="matrix(1,0,0,1,745,194.5) translate(0 19.799999999999997)"/><use xlink:href="#d" transform="matrix(1,0,0,1,905,194.5) translate(0 19.799999999999997)"/><use xlink:href="#g" transform="matrix(1,0,0,1,745,226.5) translate(0 20.599999999999998)"/><use xlink:href="#d" transform="matrix(1,0,0,1,905,226.5) translate(0 19.799999999999997)"/><use xlink:href="#an" transform="matrix(1,0,0,1,745,258.5) translate(0 19.799999999999997)"/><use xlink:href="#r" transform="matrix(1,0,0,1,905,258.5) translate(0 19.799999999999997)"/><path d="M440.5 592H458c6.63 0 12-5.37 12-12V220c0-6.63 5.37-12 12-12h178.1" stroke="#333" fill="none"/><path d="M440.5 602v-20M420.5 592h20" stroke="#333" fill="#fff"/><path d="M679.28 218l-20-10 20-10" stroke="#333" fill="#fff" fill-opacity="0"/><path d="M679.28 208h-20" stroke="#333" fill="#fff"/><path d="M479.5-364H-118c-6.63 0-12 5.37-12 12v836c0 6.63 5.37 12 12 12h37.5" stroke="#333" fill="none"/><path d="M489.5-374v20M499.5-364h-20M479.5-374v20M-70.5 486v20M-60.5 496h-20M-80.5 486v20" stroke="#333" fill="#fff"/><path d="M900.5-428H1068c6.63 0 12 5.37 12 12v380c0 6.63 5.37 12 12 12h107" stroke="#333" fill="none"/><path d="M890.5-418v-20M880.5-428h20M900.5-418v-20M1209-34v20M1219-24h-20M1199-34v20" stroke="#333" fill="#fff"/><path d="M479.5-332h-8c-6.63 0-12 5.37-12 12v184c0 6.63 5.37 12 12 12h8.6" stroke="#333" fill="none"/><path d="M479.5-342v20M499.5-332h-20" stroke="#333" fill="#fff"/><path d="M499.28-114l-20-10 20-10" stroke="#333" fill="#fff" fill-opacity="0"/><path d="M499.28-124h-20" stroke="#333" fill="#fff"/><defs><path fill="#333" d="M63-220v92h138v28H63V0H30v-248h175v28H63" id="ao"/><path fill="#333" d="M141-36C126-15 110 5 73 4 37 3 15-17 15-53c-1-64 63-63 125-63 3-35-9-54-41-54-24 1-41 7-42 31l-33-3c5-37 33-52 76-52 45 0 72 20 72 64v82c-1 20 7 32 28 27v20c-31 9-61-2-59-35zM48-53c0 20 12 33 32 33 41-3 63-29 60-74-43 2-92-5-92 41" id="ap"/><path fill="#333" d="M59-47c-2 24 18 29 38 22v24C64 9 27 4 27-40v-127H5v-23h24l9-43h21v43h35v23H59v120" id="aq"/><path fill="#333" d="M84 4C-5 8 30-112 23-190h32v120c0 31 7 50 39 49 72-2 45-101 50-169h31l1 190h-30c-1-10 1-25-2-33-11 22-28 36-60 37" id="ar"/><path fill="#333" d="M114-163C36-179 61-72 57 0H25l-1-190h30c1 12-1 29 2 39 6-27 23-49 58-41v29" id="as"/><g id="a"><use transform="matrix(0.04938271604938272,0,0,0.04938271604938272,0,0)" xlink:href="#ao"/><use transform="matrix(0.04938271604938272,0,0,0.04938271604938272,10.814814814814815,0)" xlink:href="#ap"/><use transform="matrix(0.04938271604938272,0,0,0.04938271604938272,20.69135802469136,0)" xlink:href="#aq"/><use transform="matrix(0.04938271604938272,0,0,0.04938271604938272,25.629629629629633,0)" xlink:href="#ar"/><use transform="matrix(0.04938271604938272,0,0,0.04938271604938272,35.50617283950618,0)" xlink:href="#as"/><use transform="matrix(0.04938271604938272,0,0,0.04938271604938272,41.38271604938272,0)" xlink:href="#ap"/></g><path d="M30-248c87 1 191-15 191 75 0 78-77 80-158 76V0H30v-248zm33 125c57 0 124 11 124-50 0-59-68-47-124-48v98" id="at"/><path d="M194 0L95-120 63-95V0H30v-248h33v124l119-124h40L117-140 236 0h-42" id="au"/><g id="b"><use transform="matrix(0.05,0,0,0.05,0,0)" xlink:href="#at"/><use transform="matrix(0.05,0,0,0.05,12,0)" xlink:href="#au"/></g><path d="M101-234c-31-9-42 10-38 44h38v23H63V0H32v-167H5v-23h27c-7-52 17-82 69-68v24" id="av"/><path d="M141-36C126-15 110 5 73 4 37 3 15-17 15-53c-1-64 63-63 125-63 3-35-9-54-41-54-24 1-41 7-42 31l-33-3c5-37 33-52 76-52 45 0 72 20 72 64v82c-1 20 7 32 28 27v20c-31 9-61-2-59-35zM48-53c0 20 12 33 32 33 41-3 63-29 60-74-43 2-92-5-92 41" id="aw"/><path d="M59-47c-2 24 18 29 38 22v24C64 9 27 4 27-40v-127H5v-23h24l9-43h21v43h35v23H59v120" id="ax"/><path d="M84 4C-5 8 30-112 23-190h32v120c0 31 7 50 39 49 72-2 45-101 50-169h31l1 190h-30c-1-10 1-25-2-33-11 22-28 36-60 37" id="ay"/><path d="M114-163C36-179 61-72 57 0H25l-1-190h30c1 12-1 29 2 39 6-27 23-49 58-41v29" id="az"/><path d="M-5 72V49h209v23H-5" id="aA"/><path d="M117-194c89-4 53 116 60 194h-32v-121c0-31-8-49-39-48C34-167 62-67 57 0H25l-1-190h30c1 10-1 24 2 32 11-22 29-35 61-36" id="aB"/><path d="M100-194c62-1 85 37 85 99 1 63-27 99-86 99S16-35 15-95c0-66 28-99 85-99zM99-20c44 1 53-31 53-75 0-43-8-75-51-75s-53 32-53 75 10 74 51 75" id="aC"/><g id="c"><use transform="matrix(0.05,0,0,0.05,0,0)" xlink:href="#av"/><use transform="matrix(0.05,0,0,0.05,5,0)" xlink:href="#aw"/><use transform="matrix(0.05,0,0,0.05,15,0)" xlink:href="#ax"/><use transform="matrix(0.05,0,0,0.05,20,0)" xlink:href="#ay"/><use transform="matrix(0.05,0,0,0.05,30,0)" xlink:href="#az"/><use transform="matrix(0.05,0,0,0.05,35.95,0)" xlink:href="#aw"/><use transform="matrix(0.05,0,0,0.05,45.95,0)" xlink:href="#aA"/><use transform="matrix(0.05,0,0,0.05,55.95,0)" xlink:href="#aB"/><use transform="matrix(0.05,0,0,0.05,65.95,0)" xlink:href="#aC"/></g><path d="M24-231v-30h32v30H24zM24 0v-190h32V0H24" id="aD"/><g id="d"><use transform="matrix(0.05,0,0,0.05,0,0)" xlink:href="#aD"/><use transform="matrix(0.05,0,0,0.05,3.95,0)" xlink:href="#aB"/><use transform="matrix(0.05,0,0,0.05,13.949999999999998,0)" xlink:href="#ax"/></g><path d="M106-169C34-169 62-67 57 0H25v-261h32l-1 103c12-21 28-36 61-36 89 0 53 116 60 194h-32v-121c2-32-8-49-39-48" id="aE"/><g id="e"><use transform="matrix(0.05,0,0,0.05,0,0)" xlink:href="#ax"/><use transform="matrix(0.05,0,0,0.05,5,0)" xlink:href="#aw"/><use transform="matrix(0.05,0,0,0.05,15,0)" xlink:href="#az"/><use transform="matrix(0.05,0,0,0.05,20.95,0)" xlink:href="#aD"/><use transform="matrix(0.05,0,0,0.05,24.9,0)" xlink:href="#aE"/></g><path d="M85-194c31 0 48 13 60 33l-1-100h32l1 261h-30c-2-10 0-23-3-31C134-8 116 4 85 4 32 4 16-35 15-94c0-66 23-100 70-100zm9 24c-40 0-46 34-46 75 0 40 6 74 45 74 42 0 51-32 51-76 0-42-9-74-50-73" id="aF"/><path d="M100-194c63 0 86 42 84 106H49c0 40 14 67 53 68 26 1 43-12 49-29l28 8c-11 28-37 45-77 45C44 4 14-33 15-96c1-61 26-98 85-98zm52 81c6-60-76-77-97-28-3 7-6 17-6 28h103" id="aG"/><g id="f"><use transform="matrix(0.05,0,0,0.05,0,0)" xlink:href="#aF"/><use transform="matrix(0.05,0,0,0.05,10,0)" xlink:href="#aw"/><use transform="matrix(0.05,0,0,0.05,20,0)" xlink:href="#ax"/><use transform="matrix(0.05,0,0,0.05,25,0)" xlink:href="#aG"/></g><path d="M96-169c-40 0-48 33-48 73s9 75 48 75c24 0 41-14 43-38l32 2c-6 37-31 61-74 61-59 0-76-41-82-99-10-93 101-131 147-64 4 7 5 14 7 22l-32 3c-4-21-16-35-41-35" id="aH"/><g id="g"><use transform="matrix(0.044444444444444446,0,0,0.044444444444444446,0,0)" xlink:href="#ay"/><use transform="matrix(0.044444444444444446,0,0,0.044444444444444446,8.88888888888889,0)" xlink:href="#aH"/><use transform="matrix(0.044444444444444446,0,0,0.044444444444444446,16.88888888888889,0)" xlink:href="#az"/><use transform="matrix(0.044444444444444446,0,0,0.044444444444444446,22.177777777777777,0)" xlink:href="#aG"/><use transform="matrix(0.044444444444444446,0,0,0.044444444444444446,31.066666666666666,0)" xlink:href="#ax"/></g><path d="M24 0v-261h32V0H24" id="aI"/><g id="h"><use transform="matrix(0.044444444444444446,0,0,0.044444444444444446,0,0)" xlink:href="#av"/><use transform="matrix(0.044444444444444446,0,0,0.044444444444444446,4.444444444444445,0)" xlink:href="#aI"/><use transform="matrix(0.044444444444444446,0,0,0.044444444444444446,7.955555555555556,0)" xlink:href="#aC"/><use transform="matrix(0.044444444444444446,0,0,0.044444444444444446,16.844444444444445,0)" xlink:href="#aw"/><use transform="matrix(0.044444444444444446,0,0,0.044444444444444446,25.733333333333334,0)" xlink:href="#ax"/></g><path d="M63-220v92h138v28H63V0H30v-248h175v28H63" id="aJ"/><g id="i"><use transform="matrix(0.05,0,0,0.05,0,0)" xlink:href="#aJ"/><use transform="matrix(0.05,0,0,0.05,10.950000000000001,0)" xlink:href="#au"/></g><path d="M135-143c-3-34-86-38-87 0 15 53 115 12 119 90S17 21 10-45l28-5c4 36 97 45 98 0-10-56-113-15-118-90-4-57 82-63 122-42 12 7 21 19 24 35" id="aK"/><g id="j"><use transform="matrix(0.05,0,0,0.05,0,0)" xlink:href="#aE"/><use transform="matrix(0.05,0,0,0.05,10,0)" xlink:href="#aw"/><use transform="matrix(0.05,0,0,0.05,20,0)" xlink:href="#aK"/><use transform="matrix(0.05,0,0,0.05,29,0)" xlink:href="#ax"/><use transform="matrix(0.05,0,0,0.05,34,0)" xlink:href="#aw"/><use transform="matrix(0.05,0,0,0.05,44,0)" xlink:href="#aA"/><use transform="matrix(0.05,0,0,0.05,54,0)" xlink:href="#aD"/><use transform="matrix(0.05,0,0,0.05,57.95,0)" xlink:href="#aF"/></g><g id="k"><use transform="matrix(0.05,0,0,0.05,0,0)" xlink:href="#az"/><use transform="matrix(0.05,0,0,0.05,5.95,0)" xlink:href="#aG"/><use transform="matrix(0.05,0,0,0.05,15.949999999999998,0)" xlink:href="#aH"/><use transform="matrix(0.05,0,0,0.05,24.95,0)" xlink:href="#aG"/><use transform="matrix(0.05,0,0,0.05,34.95,0)" xlink:href="#ax"/><use transform="matrix(0.05,0,0,0.05,39.95,0)" xlink:href="#aG"/><use transform="matrix(0.05,0,0,0.05,49.95,0)" xlink:href="#aA"/><use transform="matrix(0.05,0,0,0.05,59.95,0)" xlink:href="#aB"/><use transform="matrix(0.05,0,0,0.05,69.95,0)" xlink:href="#aC"/></g><path d="M115-194c55 1 70 41 70 98S169 2 115 4C84 4 66-9 55-30l1 105H24l-1-265h31l2 30c10-21 28-34 59-34zm-8 174c40 0 45-34 45-75s-6-73-45-74c-42 0-51 32-51 76 0 43 10 73 51 73" id="aL"/><path d="M179-190L93 31C79 59 56 82 12 73V49c39 6 53-20 64-50L1-190h34L92-34l54-156h33" id="aM"/><g id="l"><use transform="matrix(0.05,0,0,0.05,0,0)" xlink:href="#aC"/><use transform="matrix(0.05,0,0,0.05,10,0)" xlink:href="#aL"/><use transform="matrix(0.05,0,0,0.05,20,0)" xlink:href="#aG"/><use transform="matrix(0.05,0,0,0.05,30,0)" xlink:href="#az"/><use transform="matrix(0.05,0,0,0.05,35.95,0)" xlink:href="#aw"/><use transform="matrix(0.05,0,0,0.05,45.95,0)" xlink:href="#aK"/><use transform="matrix(0.05,0,0,0.05,54.95,0)" xlink:href="#aM"/><use transform="matrix(0.05,0,0,0.05,63.95,0)" xlink:href="#aC"/><use transform="matrix(0.05,0,0,0.05,73.95,0)" xlink:href="#aB"/><use transform="matrix(0.05,0,0,0.05,83.95,0)" xlink:href="#aA"/><use transform="matrix(0.05,0,0,0.05,93.95,0)" xlink:href="#aD"/><use transform="matrix(0.05,0,0,0.05,97.9,0)" xlink:href="#aF"/></g><path d="M210-169c-67 3-38 105-44 169h-31v-121c0-29-5-50-35-48C34-165 62-65 56 0H25l-1-190h30c1 10-1 24 2 32 10-44 99-50 107 0 11-21 27-35 58-36 85-2 47 119 55 194h-31v-121c0-29-5-49-35-48" id="aN"/><path d="M143 0L79-87 56-68V0H24v-261h32v163l83-92h37l-77 82L181 0h-38" id="aO"/><g id="m"><use transform="matrix(0.05,0,0,0.05,0,0)" xlink:href="#aC"/><use transform="matrix(0.05,0,0,0.05,10,0)" xlink:href="#aF"/><use transform="matrix(0.05,0,0,0.05,20,0)" xlink:href="#aG"/><use transform="matrix(0.05,0,0,0.05,30,0)" xlink:href="#aN"/><use transform="matrix(0.05,0,0,0.05,44.95,0)" xlink:href="#aG"/><use transform="matrix(0.05,0,0,0.05,54.95,0)" xlink:href="#aA"/><use transform="matrix(0.05,0,0,0.05,64.95,0)" xlink:href="#aK"/><use transform="matrix(0.05,0,0,0.05,73.95,0)" xlink:href="#aG"/><use transform="matrix(0.05,0,0,0.05,83.95,0)" xlink:href="#aO"/><use transform="matrix(0.05,0,0,0.05,92.95,0)" xlink:href="#aI"/><use transform="matrix(0.05,0,0,0.05,96.9,0)" xlink:href="#aD"/><use transform="matrix(0.05,0,0,0.05,100.85000000000001,0)" xlink:href="#aA"/><use transform="matrix(0.05,0,0,0.05,110.85000000000001,0)" xlink:href="#aD"/><use transform="matrix(0.05,0,0,0.05,114.80000000000001,0)" xlink:href="#aF"/></g><path fill="#333" d="M233-177c-1 41-23 64-60 70L243 0h-38l-65-103H63V0H30v-248c88 3 205-21 203 71zM63-129c60-2 137 13 137-47 0-61-80-42-137-45v92" id="aP"/><path fill="#333" d="M100-194c63 0 86 42 84 106H49c0 40 14 67 53 68 26 1 43-12 49-29l28 8c-11 28-37 45-77 45C44 4 14-33 15-96c1-61 26-98 85-98zm52 81c6-60-76-77-97-28-3 7-6 17-6 28h103" id="aQ"/><path fill="#333" d="M96-169c-40 0-48 33-48 73s9 75 48 75c24 0 41-14 43-38l32 2c-6 37-31 61-74 61-59 0-76-41-82-99-10-93 101-131 147-64 4 7 5 14 7 22l-32 3c-4-21-16-35-41-35" id="aR"/><g id="n"><use transform="matrix(0.04938271604938272,0,0,0.04938271604938272,0,0)" xlink:href="#aP"/><use transform="matrix(0.04938271604938272,0,0,0.04938271604938272,12.790123456790125,0)" xlink:href="#aQ"/><use transform="matrix(0.04938271604938272,0,0,0.04938271604938272,22.66666666666667,0)" xlink:href="#aR"/><use transform="matrix(0.04938271604938272,0,0,0.04938271604938272,31.555555555555557,0)" xlink:href="#aQ"/><use transform="matrix(0.04938271604938272,0,0,0.04938271604938272,41.4320987654321,0)" xlink:href="#aq"/><use transform="matrix(0.04938271604938272,0,0,0.04938271604938272,46.370370370370374,0)" xlink:href="#aQ"/></g><path fill="#333" d="M140-251c81 0 123 46 123 126C263-46 219 4 140 4 59 4 17-45 17-125s42-126 123-126zm0 227c63 0 89-41 89-101s-29-99-89-99c-61 0-89 39-89 99S79-25 140-24" id="aS"/><path fill="#333" d="M85-194c31 0 48 13 60 33l-1-100h32l1 261h-30c-2-10 0-23-3-31C134-8 116 4 85 4 32 4 16-35 15-94c0-66 23-100 70-100zm9 24c-40 0-46 34-46 75 0 40 6 74 45 74 42 0 51-32 51-76 0-42-9-74-50-73" id="aT"/><path fill="#333" d="M210-169c-67 3-38 105-44 169h-31v-121c0-29-5-50-35-48C34-165 62-65 56 0H25l-1-190h30c1 10-1 24 2 32 10-44 99-50 107 0 11-21 27-35 58-36 85-2 47 119 55 194h-31v-121c0-29-5-49-35-48" id="aU"/><path fill="#333" d="M185-189c-5-48-123-54-124 2 14 75 158 14 163 119 3 78-121 87-175 55-17-10-28-26-33-46l33-7c5 56 141 63 141-1 0-78-155-14-162-118-5-82 145-84 179-34 5 7 8 16 11 25" id="aV"/><path fill="#333" d="M143 0L79-87 56-68V0H24v-261h32v163l83-92h37l-77 82L181 0h-38" id="aW"/><path fill="#333" d="M24 0v-261h32V0H24" id="aX"/><path fill="#333" d="M24-231v-30h32v30H24zM24 0v-190h32V0H24" id="aY"/><g id="o"><use transform="matrix(0.04938271604938272,0,0,0.04938271604938272,0,0)" xlink:href="#aS"/><use transform="matrix(0.04938271604938272,0,0,0.04938271604938272,13.827160493827162,0)" xlink:href="#aT"/><use transform="matrix(0.04938271604938272,0,0,0.04938271604938272,23.703703703703706,0)" xlink:href="#aQ"/><use transform="matrix(0.04938271604938272,0,0,0.04938271604938272,33.580246913580254,0)" xlink:href="#aU"/><use transform="matrix(0.04938271604938272,0,0,0.04938271604938272,48.345679012345684,0)" xlink:href="#aQ"/><use transform="matrix(0.04938271604938272,0,0,0.04938271604938272,58.22222222222223,0)" xlink:href="#aV"/><use transform="matrix(0.04938271604938272,0,0,0.04938271604938272,70.07407407407408,0)" xlink:href="#aQ"/><use transform="matrix(0.04938271604938272,0,0,0.04938271604938272,79.95061728395062,0)" xlink:href="#aW"/><use transform="matrix(0.04938271604938272,0,0,0.04938271604938272,88.8395061728395,0)" xlink:href="#aX"/><use transform="matrix(0.04938271604938272,0,0,0.04938271604938272,92.74074074074075,0)" xlink:href="#aY"/></g><g id="p"><use transform="matrix(0.05,0,0,0.05,0,0)" xlink:href="#aD"/><use transform="matrix(0.05,0,0,0.05,3.95,0)" xlink:href="#aF"/></g><g id="q"><use transform="matrix(0.05,0,0,0.05,0,0)" xlink:href="#ax"/><use transform="matrix(0.05,0,0,0.05,5,0)" xlink:href="#ay"/><use transform="matrix(0.05,0,0,0.05,15,0)" xlink:href="#az"/></g><path d="M108 0H70L1-190h34L89-25l56-165h34" id="aZ"/><path d="M87 75C49 33 22-17 22-94c0-76 28-126 65-167h31c-38 41-64 92-64 168S80 34 118 75H87" id="ba"/><path d="M126-127c33 6 58 20 58 59 0 88-139 92-164 29-3-8-5-16-6-25l32-3c6 27 21 44 54 44 32 0 52-15 52-46 0-38-36-46-79-43v-28c39 1 72-4 72-42 0-27-17-43-46-43-28 0-47 15-49 41l-32-3c6-42 35-63 81-64 48-1 79 21 79 65 0 36-21 52-52 59" id="bb"/><path d="M101-251c68 0 85 55 85 127S166 4 100 4C33 4 14-52 14-124c0-73 17-127 87-127zm-1 229c47 0 54-49 54-102s-4-102-53-102c-51 0-55 48-55 102 0 53 5 102 54 102" id="bc"/><path d="M33-261c38 41 65 92 65 168S71 34 33 75H2C39 34 66-17 66-93S39-220 2-261h31" id="bd"/><g id="r"><use transform="matrix(0.05,0,0,0.05,0,0)" xlink:href="#aZ"/><use transform="matrix(0.05,0,0,0.05,9,0)" xlink:href="#aw"/><use transform="matrix(0.05,0,0,0.05,19,0)" xlink:href="#az"/><use transform="matrix(0.05,0,0,0.05,24.95,0)" xlink:href="#aH"/><use transform="matrix(0.05,0,0,0.05,33.95,0)" xlink:href="#aE"/><use transform="matrix(0.05,0,0,0.05,43.95,0)" xlink:href="#aw"/><use transform="matrix(0.05,0,0,0.05,53.95,0)" xlink:href="#az"/><use transform="matrix(0.05,0,0,0.05,59.900000000000006,0)" xlink:href="#ba"/><use transform="matrix(0.05,0,0,0.05,65.85000000000001,0)" xlink:href="#bb"/><use transform="matrix(0.05,0,0,0.05,75.85000000000001,0)" xlink:href="#bc"/><use transform="matrix(0.05,0,0,0.05,85.85000000000001,0)" xlink:href="#bd"/></g><path fill="#333" d="M33 0v-248h34V0H33" id="be"/><g id="s"><use transform="matrix(0.04938271604938272,0,0,0.04938271604938272,0,0)" xlink:href="#aP"/><use transform="matrix(0.04938271604938272,0,0,0.04938271604938272,12.790123456790125,0)" xlink:href="#aQ"/><use transform="matrix(0.04938271604938272,0,0,0.04938271604938272,22.66666666666667,0)" xlink:href="#aR"/><use transform="matrix(0.04938271604938272,0,0,0.04938271604938272,31.555555555555557,0)" xlink:href="#aQ"/><use transform="matrix(0.04938271604938272,0,0,0.04938271604938272,41.4320987654321,0)" xlink:href="#aq"/><use transform="matrix(0.04938271604938272,0,0,0.04938271604938272,46.370370370370374,0)" xlink:href="#aQ"/><use transform="matrix(0.04938271604938272,0,0,0.04938271604938272,56.24691358024692,0)" xlink:href="#be"/><use transform="matrix(0.04938271604938272,0,0,0.04938271604938272,61.18518518518519,0)" xlink:href="#aX"/><use transform="matrix(0.04938271604938272,0,0,0.04938271604938272,65.08641975308643,0)" xlink:href="#ap"/><use transform="matrix(0.04938271604938272,0,0,0.04938271604938272,74.96296296296298,0)" xlink:href="#aR"/></g><path d="M115-194c53 0 69 39 70 98 0 66-23 100-70 100C84 3 66-7 56-30L54 0H23l1-261h32v101c10-23 28-34 59-34zm-8 174c40 0 45-34 45-75 0-40-5-75-45-74-42 0-51 32-51 76 0 43 10 73 51 73" id="bf"/><g id="t"><use transform="matrix(0.05,0,0,0.05,0,0)" xlink:href="#aD"/><use transform="matrix(0.05,0,0,0.05,3.95,0)" xlink:href="#aI"/><use transform="matrix(0.05,0,0,0.05,7.9,0)" xlink:href="#aw"/><use transform="matrix(0.05,0,0,0.05,17.9,0)" xlink:href="#aH"/><use transform="matrix(0.05,0,0,0.05,26.899999999999995,0)" xlink:href="#aA"/><use transform="matrix(0.05,0,0,0.05,36.9,0)" xlink:href="#bf"/><use transform="matrix(0.05,0,0,0.05,46.9,0)" xlink:href="#aw"/><use transform="matrix(0.05,0,0,0.05,56.900000000000006,0)" xlink:href="#az"/><use transform="matrix(0.05,0,0,0.05,62.85,0)" xlink:href="#aO"/><use transform="matrix(0.05,0,0,0.05,71.85,0)" xlink:href="#aC"/><use transform="matrix(0.05,0,0,0.05,81.85,0)" xlink:href="#aF"/></g><g id="u"><use transform="matrix(0.04938271604938272,0,0,0.04938271604938272,0,0)" xlink:href="#be"/><use transform="matrix(0.04938271604938272,0,0,0.04938271604938272,4.938271604938272,0)" xlink:href="#aX"/><use transform="matrix(0.04938271604938272,0,0,0.04938271604938272,8.839506172839506,0)" xlink:href="#ap"/><use transform="matrix(0.04938271604938272,0,0,0.04938271604938272,18.71604938271605,0)" xlink:href="#aR"/></g><g id="v"><use transform="matrix(0.05,0,0,0.05,0,0)" xlink:href="#bf"/><use transform="matrix(0.05,0,0,0.05,10,0)" xlink:href="#aw"/><use transform="matrix(0.05,0,0,0.05,20,0)" xlink:href="#az"/><use transform="matrix(0.05,0,0,0.05,25.950000000000003,0)" xlink:href="#aO"/><use transform="matrix(0.05,0,0,0.05,34.95,0)" xlink:href="#aC"/><use transform="matrix(0.05,0,0,0.05,44.95,0)" xlink:href="#aF"/><use transform="matrix(0.05,0,0,0.05,54.95,0)" xlink:href="#aA"/><use transform="matrix(0.05,0,0,0.05,64.95,0)" xlink:href="#aB"/><use transform="matrix(0.05,0,0,0.05,74.95,0)" xlink:href="#aC"/></g><g id="w"><use transform="matrix(0.05,0,0,0.05,0,0)" xlink:href="#aw"/><use transform="matrix(0.05,0,0,0.05,10,0)" xlink:href="#aF"/></g><g id="x"><use transform="matrix(0.05,0,0,0.05,0,0)" xlink:href="#av"/><use transform="matrix(0.05,0,0,0.05,5,0)" xlink:href="#aD"/><use transform="matrix(0.05,0,0,0.05,8.95,0)" xlink:href="#aM"/><use transform="matrix(0.05,0,0,0.05,17.95,0)" xlink:href="#aw"/><use transform="matrix(0.05,0,0,0.05,27.950000000000003,0)" xlink:href="#ax"/></g><g id="y"><use transform="matrix(0.05,0,0,0.05,0,0)" xlink:href="#av"/><use transform="matrix(0.05,0,0,0.05,5,0)" xlink:href="#aI"/><use transform="matrix(0.05,0,0,0.05,8.95,0)" xlink:href="#aC"/><use transform="matrix(0.05,0,0,0.05,18.95,0)" xlink:href="#aw"/><use transform="matrix(0.05,0,0,0.05,28.950000000000003,0)" xlink:href="#ax"/></g><path fill="#333" d="M115-194c55 1 70 41 70 98S169 2 115 4C84 4 66-9 55-30l1 105H24l-1-265h31l2 30c10-21 28-34 59-34zm-8 174c40 0 45-34 45-75s-6-73-45-74c-42 0-51 32-51 76 0 43 10 73 51 73" id="bg"/><path fill="#333" d="M135-143c-3-34-86-38-87 0 15 53 115 12 119 90S17 21 10-45l28-5c4 36 97 45 98 0-10-56-113-15-118-90-4-57 82-63 122-42 12 7 21 19 24 35" id="bh"/><path fill="#333" d="M179-190L93 31C79 59 56 82 12 73V49c39 6 53-20 64-50L1-190h34L92-34l54-156h33" id="bi"/><path fill="#333" d="M100-194c62-1 85 37 85 99 1 63-27 99-86 99S16-35 15-95c0-66 28-99 85-99zM99-20c44 1 53-31 53-75 0-43-8-75-51-75s-53 32-53 75 10 74 51 75" id="bj"/><path fill="#333" d="M117-194c89-4 53 116 60 194h-32v-121c0-31-8-49-39-48C34-167 62-67 57 0H25l-1-190h30c1 10-1 24 2 32 11-22 29-35 61-36" id="bk"/><path fill="#333" d="M30-248c118-7 216 8 213 122C240-48 200 0 122 0H30v-248zM63-27c89 8 146-16 146-99s-60-101-146-95v194" id="bl"/><g id="z"><use transform="matrix(0.04938271604938272,0,0,0.04938271604938272,0,0)" xlink:href="#aS"/><use transform="matrix(0.04938271604938272,0,0,0.04938271604938272,13.827160493827162,0)" xlink:href="#bg"/><use transform="matrix(0.04938271604938272,0,0,0.04938271604938272,23.703703703703706,0)" xlink:href="#aQ"/><use transform="matrix(0.04938271604938272,0,0,0.04938271604938272,33.580246913580254,0)" xlink:href="#as"/><use transform="matrix(0.04938271604938272,0,0,0.04938271604938272,39.4567901234568,0)" xlink:href="#ap"/><use transform="matrix(0.04938271604938272,0,0,0.04938271604938272,49.33333333333334,0)" xlink:href="#bh"/><use transform="matrix(0.04938271604938272,0,0,0.04938271604938272,58.22222222222223,0)" xlink:href="#bi"/><use transform="matrix(0.04938271604938272,0,0,0.04938271604938272,67.11111111111111,0)" xlink:href="#bj"/><use transform="matrix(0.04938271604938272,0,0,0.04938271604938272,76.98765432098766,0)" xlink:href="#bk"/><use transform="matrix(0.04938271604938272,0,0,0.04938271604938272,86.8641975308642,0)" xlink:href="#bl"/><use transform="matrix(0.04938271604938272,0,0,0.04938271604938272,99.65432098765433,0)" xlink:href="#bj"/><use transform="matrix(0.04938271604938272,0,0,0.04938271604938272,109.53086419753087,0)" xlink:href="#aW"/><use transform="matrix(0.04938271604938272,0,0,0.04938271604938272,118.41975308641976,0)" xlink:href="#aq"/><use transform="matrix(0.04938271604938272,0,0,0.04938271604938272,123.35802469135804,0)" xlink:href="#bj"/><use transform="matrix(0.04938271604938272,0,0,0.04938271604938272,133.23456790123458,0)" xlink:href="#as"/></g><g id="A"><use transform="matrix(0.05,0,0,0.05,0,0)" xlink:href="#at"/><use transform="matrix(0.05,0,0,0.05,12,0)" xlink:href="#aO"/></g><g id="B"><use transform="matrix(0.05,0,0,0.05,0,0)" xlink:href="#aF"/><use transform="matrix(0.05,0,0,0.05,10,0)" xlink:href="#aC"/><use transform="matrix(0.05,0,0,0.05,20,0)" xlink:href="#aO"/><use transform="matrix(0.05,0,0,0.05,29,0)" xlink:href="#ax"/><use transform="matrix(0.05,0,0,0.05,34,0)" xlink:href="#aC"/><use transform="matrix(0.05,0,0,0.05,44,0)" xlink:href="#az"/><use transform="matrix(0.05,0,0,0.05,49.95,0)" xlink:href="#aA"/><use transform="matrix(0.05,0,0,0.05,59.95,0)" xlink:href="#aD"/><use transform="matrix(0.05,0,0,0.05,63.900000000000006,0)" xlink:href="#aF"/></g><path fill="#333" d="M197 0v-115H63V0H30v-248h33v105h134v-105h34V0h-34" id="bm"/><g id="C"><use transform="matrix(0.04938271604938272,0,0,0.04938271604938272,0,0)" xlink:href="#aS"/><use transform="matrix(0.04938271604938272,0,0,0.04938271604938272,13.827160493827162,0)" xlink:href="#bg"/><use transform="matrix(0.04938271604938272,0,0,0.04938271604938272,23.703703703703706,0)" xlink:href="#aQ"/><use transform="matrix(0.04938271604938272,0,0,0.04938271604938272,33.580246913580254,0)" xlink:href="#as"/><use transform="matrix(0.04938271604938272,0,0,0.04938271604938272,39.4567901234568,0)" xlink:href="#ap"/><use transform="matrix(0.04938271604938272,0,0,0.04938271604938272,49.33333333333334,0)" xlink:href="#bh"/><use transform="matrix(0.04938271604938272,0,0,0.04938271604938272,58.22222222222223,0)" xlink:href="#bi"/><use transform="matrix(0.04938271604938272,0,0,0.04938271604938272,67.11111111111111,0)" xlink:href="#bj"/><use transform="matrix(0.04938271604938272,0,0,0.04938271604938272,76.98765432098766,0)" xlink:href="#bk"/><use transform="matrix(0.04938271604938272,0,0,0.04938271604938272,86.8641975308642,0)" xlink:href="#bm"/><use transform="matrix(0.04938271604938272,0,0,0.04938271604938272,99.65432098765433,0)" xlink:href="#aQ"/><use transform="matrix(0.04938271604938272,0,0,0.04938271604938272,109.53086419753087,0)" xlink:href="#aU"/><use transform="matrix(0.04938271604938272,0,0,0.04938271604938272,124.2962962962963,0)" xlink:href="#bh"/><use transform="matrix(0.04938271604938272,0,0,0.04938271604938272,133.1851851851852,0)" xlink:href="#aY"/><use transform="matrix(0.04938271604938272,0,0,0.04938271604938272,137.08641975308643,0)" xlink:href="#as"/><use transform="matrix(0.04938271604938272,0,0,0.04938271604938272,142.96296296296296,0)" xlink:href="#aQ"/></g><g id="D"><use transform="matrix(0.05,0,0,0.05,0,0)" xlink:href="#aE"/><use transform="matrix(0.05,0,0,0.05,10,0)" xlink:href="#aG"/><use transform="matrix(0.05,0,0,0.05,20,0)" xlink:href="#aN"/><use transform="matrix(0.05,0,0,0.05,34.95,0)" xlink:href="#aK"/><use transform="matrix(0.05,0,0,0.05,43.95,0)" xlink:href="#aD"/><use transform="matrix(0.05,0,0,0.05,47.900000000000006,0)" xlink:href="#az"/><use transform="matrix(0.05,0,0,0.05,53.85,0)" xlink:href="#aG"/><use transform="matrix(0.05,0,0,0.05,63.85,0)" xlink:href="#aA"/><use transform="matrix(0.05,0,0,0.05,73.85000000000001,0)" xlink:href="#aD"/><use transform="matrix(0.05,0,0,0.05,77.80000000000001,0)" xlink:href="#aF"/></g><g id="E"><use transform="matrix(0.04938271604938272,0,0,0.04938271604938272,0,0)" xlink:href="#aS"/><use transform="matrix(0.04938271604938272,0,0,0.04938271604938272,13.827160493827162,0)" xlink:href="#bg"/><use transform="matrix(0.04938271604938272,0,0,0.04938271604938272,23.703703703703706,0)" xlink:href="#aQ"/><use transform="matrix(0.04938271604938272,0,0,0.04938271604938272,33.580246913580254,0)" xlink:href="#as"/><use transform="matrix(0.04938271604938272,0,0,0.04938271604938272,39.4567901234568,0)" xlink:href="#ap"/><use transform="matrix(0.04938271604938272,0,0,0.04938271604938272,49.33333333333334,0)" xlink:href="#bh"/><use transform="matrix(0.04938271604938272,0,0,0.04938271604938272,58.22222222222223,0)" xlink:href="#bi"/><use transform="matrix(0.04938271604938272,0,0,0.04938271604938272,67.11111111111111,0)" xlink:href="#bj"/><use transform="matrix(0.04938271604938272,0,0,0.04938271604938272,76.98765432098766,0)" xlink:href="#bk"/></g><g id="F"><use transform="matrix(0.05,0,0,0.05,0,0)" xlink:href="#aD"/><use transform="matrix(0.05,0,0,0.05,3.95,0)" xlink:href="#aK"/><use transform="matrix(0.05,0,0,0.05,12.949999999999998,0)" xlink:href="#aI"/><use transform="matrix(0.05,0,0,0.05,16.9,0)" xlink:href="#aG"/><use transform="matrix(0.05,0,0,0.05,26.899999999999995,0)" xlink:href="#aN"/><use transform="matrix(0.05,0,0,0.05,41.85,0)" xlink:href="#aA"/><use transform="matrix(0.05,0,0,0.05,51.85,0)" xlink:href="#aD"/><use transform="matrix(0.05,0,0,0.05,55.800000000000004,0)" xlink:href="#aF"/></g><g id="G"><use transform="matrix(0.05,0,0,0.05,0,0)" xlink:href="#aC"/><use transform="matrix(0.05,0,0,0.05,10,0)" xlink:href="#aL"/><use transform="matrix(0.05,0,0,0.05,20,0)" xlink:href="#aG"/><use transform="matrix(0.05,0,0,0.05,30,0)" xlink:href="#az"/><use transform="matrix(0.05,0,0,0.05,35.95,0)" xlink:href="#aw"/><use transform="matrix(0.05,0,0,0.05,45.95,0)" xlink:href="#aK"/><use transform="matrix(0.05,0,0,0.05,54.95,0)" xlink:href="#aM"/><use transform="matrix(0.05,0,0,0.05,63.95,0)" xlink:href="#aC"/><use transform="matrix(0.05,0,0,0.05,73.95,0)" xlink:href="#aB"/><use transform="matrix(0.05,0,0,0.05,83.95,0)" xlink:href="#aA"/><use transform="matrix(0.05,0,0,0.05,93.95,0)" xlink:href="#aF"/><use transform="matrix(0.05,0,0,0.05,103.95,0)" xlink:href="#aC"/><use transform="matrix(0.05,0,0,0.05,113.95,0)" xlink:href="#aO"/><use transform="matrix(0.05,0,0,0.05,122.95,0)" xlink:href="#ax"/><use transform="matrix(0.05,0,0,0.05,127.95,0)" xlink:href="#aC"/><use transform="matrix(0.05,0,0,0.05,137.95,0)" xlink:href="#az"/><use transform="matrix(0.05,0,0,0.05,143.89999999999998,0)" xlink:href="#aA"/><use transform="matrix(0.05,0,0,0.05,153.89999999999998,0)" xlink:href="#aD"/><use transform="matrix(0.05,0,0,0.05,157.84999999999997,0)" xlink:href="#aF"/></g><g id="H"><use transform="matrix(0.05,0,0,0.05,0,0)" xlink:href="#aC"/><use transform="matrix(0.05,0,0,0.05,10,0)" xlink:href="#aL"/><use transform="matrix(0.05,0,0,0.05,20,0)" xlink:href="#aG"/><use transform="matrix(0.05,0,0,0.05,30,0)" xlink:href="#az"/><use transform="matrix(0.05,0,0,0.05,35.95,0)" xlink:href="#aw"/><use transform="matrix(0.05,0,0,0.05,45.95,0)" xlink:href="#aK"/><use transform="matrix(0.05,0,0,0.05,54.95,0)" xlink:href="#aM"/><use transform="matrix(0.05,0,0,0.05,63.95,0)" xlink:href="#aC"/><use transform="matrix(0.05,0,0,0.05,73.95,0)" xlink:href="#aB"/><use transform="matrix(0.05,0,0,0.05,83.95,0)" xlink:href="#aA"/><use transform="matrix(0.05,0,0,0.05,93.95,0)" xlink:href="#aE"/><use transform="matrix(0.05,0,0,0.05,103.95,0)" xlink:href="#aG"/><use transform="matrix(0.05,0,0,0.05,113.95,0)" xlink:href="#aN"/><use transform="matrix(0.05,0,0,0.05,128.9,0)" xlink:href="#aK"/><use transform="matrix(0.05,0,0,0.05,137.9,0)" xlink:href="#aD"/><use transform="matrix(0.05,0,0,0.05,141.85,0)" xlink:href="#az"/><use transform="matrix(0.05,0,0,0.05,147.79999999999998,0)" xlink:href="#aG"/><use transform="matrix(0.05,0,0,0.05,157.79999999999998,0)" xlink:href="#az"/><use transform="matrix(0.05,0,0,0.05,163.74999999999997,0)" xlink:href="#aA"/><use transform="matrix(0.05,0,0,0.05,173.74999999999997,0)" xlink:href="#aD"/><use transform="matrix(0.05,0,0,0.05,177.69999999999996,0)" xlink:href="#aF"/></g><path fill="#333" d="M127-220V0H93v-220H8v-28h204v28h-85" id="bn"/><path fill="#333" d="M101-234c-31-9-42 10-38 44h38v23H63V0H32v-167H5v-23h27c-7-52 17-82 69-68v24" id="bo"/><g id="I"><use transform="matrix(0.04938271604938272,0,0,0.04938271604938272,0,0)" xlink:href="#aS"/><use transform="matrix(0.04938271604938272,0,0,0.04938271604938272,13.827160493827162,0)" xlink:href="#aT"/><use transform="matrix(0.04938271604938272,0,0,0.04938271604938272,23.703703703703706,0)" xlink:href="#ap"/><use transform="matrix(0.04938271604938272,0,0,0.04938271604938272,33.580246913580254,0)" xlink:href="#bn"/><use transform="matrix(0.04938271604938272,0,0,0.04938271604938272,42.41975308641976,0)" xlink:href="#aQ"/><use transform="matrix(0.04938271604938272,0,0,0.04938271604938272,52.2962962962963,0)" xlink:href="#aX"/><use transform="matrix(0.04938271604938272,0,0,0.04938271604938272,56.19753086419754,0)" xlink:href="#aQ"/><use transform="matrix(0.04938271604938272,0,0,0.04938271604938272,66.07407407407408,0)" xlink:href="#bo"/><use transform="matrix(0.04938271604938272,0,0,0.04938271604938272,71.01234567901236,0)" xlink:href="#bj"/><use transform="matrix(0.04938271604938272,0,0,0.04938271604938272,80.8888888888889,0)" xlink:href="#bk"/></g><g id="J"><use transform="matrix(0.05,0,0,0.05,0,0)" xlink:href="#ax"/><use transform="matrix(0.05,0,0,0.05,5,0)" xlink:href="#aG"/><use transform="matrix(0.05,0,0,0.05,15,0)" xlink:href="#aI"/><use transform="matrix(0.05,0,0,0.05,18.95,0)" xlink:href="#aA"/><use transform="matrix(0.05,0,0,0.05,28.950000000000003,0)" xlink:href="#aB"/><use transform="matrix(0.05,0,0,0.05,38.95,0)" xlink:href="#aC"/></g><g id="K"><use transform="matrix(0.044444444444444446,0,0,0.044444444444444446,0,0)" xlink:href="#aZ"/><use transform="matrix(0.044444444444444446,0,0,0.044444444444444446,8,0)" xlink:href="#aw"/><use transform="matrix(0.044444444444444446,0,0,0.044444444444444446,16.88888888888889,0)" xlink:href="#az"/><use transform="matrix(0.044444444444444446,0,0,0.044444444444444446,22.177777777777777,0)" xlink:href="#aH"/><use transform="matrix(0.044444444444444446,0,0,0.044444444444444446,30.17777777777778,0)" xlink:href="#aE"/><use transform="matrix(0.044444444444444446,0,0,0.044444444444444446,39.06666666666666,0)" xlink:href="#aw"/><use transform="matrix(0.044444444444444446,0,0,0.044444444444444446,47.95555555555555,0)" xlink:href="#az"/><use transform="matrix(0.044444444444444446,0,0,0.044444444444444446,53.24444444444443,0)" xlink:href="#ba"/><use transform="matrix(0.044444444444444446,0,0,0.044444444444444446,58.53333333333334,0)" xlink:href="#bb"/><use transform="matrix(0.044444444444444446,0,0,0.044444444444444446,67.42222222222222,0)" xlink:href="#bc"/><use transform="matrix(0.044444444444444446,0,0,0.044444444444444446,76.3111111111111,0)" xlink:href="#bd"/></g><g id="L"><use transform="matrix(0.05,0,0,0.05,0,0)" xlink:href="#aC"/><use transform="matrix(0.05,0,0,0.05,10,0)" xlink:href="#aF"/><use transform="matrix(0.05,0,0,0.05,20,0)" xlink:href="#aw"/><use transform="matrix(0.05,0,0,0.05,30,0)" xlink:href="#aA"/><use transform="matrix(0.05,0,0,0.05,40,0)" xlink:href="#aB"/><use transform="matrix(0.05,0,0,0.05,50,0)" xlink:href="#aC"/></g><g id="M"><use transform="matrix(0.04938271604938272,0,0,0.04938271604938272,0,0)" xlink:href="#bn"/><use transform="matrix(0.04938271604938272,0,0,0.04938271604938272,8.839506172839506,0)" xlink:href="#aQ"/><use transform="matrix(0.04938271604938272,0,0,0.04938271604938272,18.71604938271605,0)" xlink:href="#aX"/><use transform="matrix(0.04938271604938272,0,0,0.04938271604938272,22.617283950617285,0)" xlink:href="#aQ"/><use transform="matrix(0.04938271604938272,0,0,0.04938271604938272,32.49382716049383,0)" xlink:href="#bo"/><use transform="matrix(0.04938271604938272,0,0,0.04938271604938272,37.4320987654321,0)" xlink:href="#bj"/><use transform="matrix(0.04938271604938272,0,0,0.04938271604938272,47.308641975308646,0)" xlink:href="#bk"/></g><g id="N"><use transform="matrix(0.04938271604938272,0,0,0.04938271604938272,0,0)" xlink:href="#aS"/><use transform="matrix(0.04938271604938272,0,0,0.04938271604938272,13.827160493827162,0)" xlink:href="#aT"/><use transform="matrix(0.04938271604938272,0,0,0.04938271604938272,23.703703703703706,0)" xlink:href="#ap"/></g><g id="O"><use transform="matrix(0.05,0,0,0.05,0,0)" xlink:href="#aO"/><use transform="matrix(0.05,0,0,0.05,9,0)" xlink:href="#aw"/><use transform="matrix(0.05,0,0,0.05,19,0)" xlink:href="#aL"/><use transform="matrix(0.05,0,0,0.05,29,0)" xlink:href="#aw"/><use transform="matrix(0.05,0,0,0.05,39,0)" xlink:href="#aK"/><use transform="matrix(0.05,0,0,0.05,48,0)" xlink:href="#aD"/><use transform="matrix(0.05,0,0,0.05,51.95,0)" xlink:href="#ax"/><use transform="matrix(0.05,0,0,0.05,56.95,0)" xlink:href="#aG"/></g><path fill="#333" d="M240 0l2-218c-23 76-54 145-80 218h-23L58-218 59 0H30v-248h44l77 211c21-75 51-140 76-211h43V0h-30" id="bp"/><g id="P"><use transform="matrix(0.04938271604938272,0,0,0.04938271604938272,0,0)" xlink:href="#bp"/><use transform="matrix(0.04938271604938272,0,0,0.04938271604938272,14.765432098765434,0)" xlink:href="#ar"/><use transform="matrix(0.04938271604938272,0,0,0.04938271604938272,24.641975308641978,0)" xlink:href="#ap"/><use transform="matrix(0.04938271604938272,0,0,0.04938271604938272,34.51851851851852,0)" xlink:href="#bi"/><use transform="matrix(0.04938271604938272,0,0,0.04938271604938272,43.407407407407405,0)" xlink:href="#aQ"/><use transform="matrix(0.04938271604938272,0,0,0.04938271604938272,53.28395061728394,0)" xlink:href="#bk"/><use transform="matrix(0.04938271604938272,0,0,0.04938271604938272,63.1604938271605,0)" xlink:href="#aQ"/></g><g id="Q"><use transform="matrix(0.05,0,0,0.05,0,0)" xlink:href="#ax"/><use transform="matrix(0.05,0,0,0.05,5,0)" xlink:href="#aG"/><use transform="matrix(0.05,0,0,0.05,15,0)" xlink:href="#aK"/><use transform="matrix(0.05,0,0,0.05,24,0)" xlink:href="#aE"/><use transform="matrix(0.05,0,0,0.05,34,0)" xlink:href="#aD"/><use transform="matrix(0.05,0,0,0.05,37.95,0)" xlink:href="#aK"/><use transform="matrix(0.05,0,0,0.05,46.95,0)" xlink:href="#aA"/><use transform="matrix(0.05,0,0,0.05,56.95,0)" xlink:href="#aB"/><use transform="matrix(0.05,0,0,0.05,66.95,0)" xlink:href="#aC"/></g><path fill="#333" d="M106-169C34-169 62-67 57 0H25v-261h32l-1 103c12-21 28-36 61-36 89 0 53 116 60 194h-32v-121c2-32-8-49-39-48" id="bq"/><g id="R"><use transform="matrix(0.04938271604938272,0,0,0.04938271604938272,0,0)" xlink:href="#bn"/><use transform="matrix(0.04938271604938272,0,0,0.04938271604938272,8.839506172839506,0)" xlink:href="#aQ"/><use transform="matrix(0.04938271604938272,0,0,0.04938271604938272,18.71604938271605,0)" xlink:href="#bh"/><use transform="matrix(0.04938271604938272,0,0,0.04938271604938272,27.60493827160494,0)" xlink:href="#bq"/><use transform="matrix(0.04938271604938272,0,0,0.04938271604938272,37.48148148148148,0)" xlink:href="#aY"/><use transform="matrix(0.04938271604938272,0,0,0.04938271604938272,41.382716049382715,0)" xlink:href="#bh"/></g><g id="S"><use transform="matrix(0.05,0,0,0.05,0,0)" xlink:href="#ax"/><use transform="matrix(0.05,0,0,0.05,5,0)" xlink:href="#aG"/><use transform="matrix(0.05,0,0,0.05,15,0)" xlink:href="#aK"/><use transform="matrix(0.05,0,0,0.05,24,0)" xlink:href="#aE"/><use transform="matrix(0.05,0,0,0.05,34,0)" xlink:href="#aD"/><use transform="matrix(0.05,0,0,0.05,37.95,0)" xlink:href="#aK"/></g><g id="T"><use transform="matrix(0.04938271604938272,0,0,0.04938271604938272,0,0)" xlink:href="#bm"/><use transform="matrix(0.04938271604938272,0,0,0.04938271604938272,12.790123456790125,0)" xlink:href="#aQ"/><use transform="matrix(0.04938271604938272,0,0,0.04938271604938272,22.66666666666667,0)" xlink:href="#aU"/><use transform="matrix(0.04938271604938272,0,0,0.04938271604938272,37.4320987654321,0)" xlink:href="#bh"/><use transform="matrix(0.04938271604938272,0,0,0.04938271604938272,46.32098765432099,0)" xlink:href="#aY"/><use transform="matrix(0.04938271604938272,0,0,0.04938271604938272,50.22222222222222,0)" xlink:href="#as"/><use transform="matrix(0.04938271604938272,0,0,0.04938271604938272,56.09876543209877,0)" xlink:href="#aQ"/></g><g id="U"><use transform="matrix(0.05,0,0,0.05,0,0)" xlink:href="#ax"/><use transform="matrix(0.05,0,0,0.05,5,0)" xlink:href="#aH"/><use transform="matrix(0.05,0,0,0.05,14,0)" xlink:href="#aA"/><use transform="matrix(0.05,0,0,0.05,24,0)" xlink:href="#aB"/><use transform="matrix(0.05,0,0,0.05,34,0)" xlink:href="#aC"/></g><g id="V"><use transform="matrix(0.044444444444444446,0,0,0.044444444444444446,0,0)" xlink:href="#aG"/><use transform="matrix(0.044444444444444446,0,0,0.044444444444444446,8.88888888888889,0)" xlink:href="#aL"/><use transform="matrix(0.044444444444444446,0,0,0.044444444444444446,17.77777777777778,0)" xlink:href="#aC"/><use transform="matrix(0.044444444444444446,0,0,0.044444444444444446,26.666666666666668,0)" xlink:href="#aK"/><use transform="matrix(0.044444444444444446,0,0,0.044444444444444446,34.66666666666667,0)" xlink:href="#ax"/><use transform="matrix(0.044444444444444446,0,0,0.044444444444444446,39.111111111111114,0)" xlink:href="#aw"/></g><g id="W"><use transform="matrix(0.05,0,0,0.05,0,0)" xlink:href="#aK"/><use transform="matrix(0.05,0,0,0.05,9,0)" xlink:href="#aC"/><use transform="matrix(0.05,0,0,0.05,19,0)" xlink:href="#aM"/><use transform="matrix(0.05,0,0,0.05,28,0)" xlink:href="#aw"/><use transform="matrix(0.05,0,0,0.05,38,0)" xlink:href="#aF"/></g><g id="X"><use transform="matrix(0.05,0,0,0.05,0,0)" xlink:href="#ax"/><use transform="matrix(0.05,0,0,0.05,5,0)" xlink:href="#aG"/><use transform="matrix(0.05,0,0,0.05,15,0)" xlink:href="#aI"/><use transform="matrix(0.05,0,0,0.05,18.95,0)" xlink:href="#aA"/><use transform="matrix(0.05,0,0,0.05,28.950000000000003,0)" xlink:href="#aB"/><use transform="matrix(0.05,0,0,0.05,38.95,0)" xlink:href="#aC"/><use transform="matrix(0.05,0,0,0.05,48.95,0)" xlink:href="#aA"/><use transform="matrix(0.05,0,0,0.05,58.95,0)" xlink:href="#aD"/><use transform="matrix(0.05,0,0,0.05,62.900000000000006,0)" xlink:href="#aF"/></g><g id="Y"><use transform="matrix(0.05,0,0,0.05,0,0)" xlink:href="#aN"/><use transform="matrix(0.05,0,0,0.05,14.950000000000001,0)" xlink:href="#aw"/><use transform="matrix(0.05,0,0,0.05,24.950000000000003,0)" xlink:href="#aw"/><use transform="matrix(0.05,0,0,0.05,34.95,0)" xlink:href="#aK"/><use transform="matrix(0.05,0,0,0.05,43.95,0)" xlink:href="#aA"/><use transform="matrix(0.05,0,0,0.05,53.95,0)" xlink:href="#aD"/><use transform="matrix(0.05,0,0,0.05,57.900000000000006,0)" xlink:href="#aF"/></g><g id="Z"><use transform="matrix(0.04938271604938272,0,0,0.04938271604938272,0,0)" xlink:href="#bl"/><use transform="matrix(0.04938271604938272,0,0,0.04938271604938272,12.790123456790125,0)" xlink:href="#bj"/><use transform="matrix(0.04938271604938272,0,0,0.04938271604938272,22.66666666666667,0)" xlink:href="#aW"/><use transform="matrix(0.04938271604938272,0,0,0.04938271604938272,31.555555555555557,0)" xlink:href="#aq"/><use transform="matrix(0.04938271604938272,0,0,0.04938271604938272,36.49382716049384,0)" xlink:href="#bj"/><use transform="matrix(0.04938271604938272,0,0,0.04938271604938272,46.37037037037038,0)" xlink:href="#as"/></g><path d="M9 0v-24l116-142H16v-24h144v24L44-24h123V0H9" id="br"/><path d="M34 0v-190h32V0H34" id="bs"/><g id="aa"><use transform="matrix(0.05,0,0,0.05,0,0)" xlink:href="#ay"/><use transform="matrix(0.05,0,0,0.05,10,0)" xlink:href="#br"/><use transform="matrix(0.05,0,0,0.05,19,0)" xlink:href="#aN"/><use transform="matrix(0.05,0,0,0.05,33.95,0)" xlink:href="#aw"/><use transform="matrix(0.05,0,0,0.05,43.95,0)" xlink:href="#aB"/><use transform="matrix(0.05,0,0,0.05,53.95,0)" xlink:href="#aI"/><use transform="matrix(0.05,0,0,0.05,57.900000000000006,0)" xlink:href="#bs"/><use transform="matrix(0.05,0,0,0.05,62.900000000000006,0)" xlink:href="#aO"/><use transform="matrix(0.05,0,0,0.05,71.9,0)" xlink:href="#aA"/><use transform="matrix(0.05,0,0,0.05,81.9,0)" xlink:href="#aD"/><use transform="matrix(0.05,0,0,0.05,85.85000000000001,0)" xlink:href="#aF"/></g><g id="ab"><use transform="matrix(0.04938271604938272,0,0,0.04938271604938272,0,0)" xlink:href="#bp"/><use transform="matrix(0.04938271604938272,0,0,0.04938271604938272,14.765432098765434,0)" xlink:href="#ap"/><use transform="matrix(0.04938271604938272,0,0,0.04938271604938272,24.641975308641978,0)" xlink:href="#ap"/><use transform="matrix(0.04938271604938272,0,0,0.04938271604938272,34.51851851851852,0)" xlink:href="#bh"/></g><g id="ac"><use transform="matrix(0.05,0,0,0.05,0,0)" xlink:href="#aN"/><use transform="matrix(0.05,0,0,0.05,14.950000000000001,0)" xlink:href="#aw"/><use transform="matrix(0.05,0,0,0.05,24.950000000000003,0)" xlink:href="#aw"/><use transform="matrix(0.05,0,0,0.05,34.95,0)" xlink:href="#aK"/></g><path fill="#333" d="M232-93c-1 65-40 97-104 97C67 4 28-28 28-90v-158h33c8 89-33 224 67 224 102 0 64-133 71-224h33v155" id="bt"/><path fill="#333" d="M9 0v-24l116-142H16v-24h144v24L44-24h123V0H9" id="bu"/><g id="ad"><use transform="matrix(0.04938271604938272,0,0,0.04938271604938272,0,0)" xlink:href="#bt"/><use transform="matrix(0.04938271604938272,0,0,0.04938271604938272,12.790123456790125,0)" xlink:href="#bu"/><use transform="matrix(0.04938271604938272,0,0,0.04938271604938272,21.679012345679013,0)" xlink:href="#aU"/><use transform="matrix(0.04938271604938272,0,0,0.04938271604938272,36.44444444444444,0)" xlink:href="#ap"/><use transform="matrix(0.04938271604938272,0,0,0.04938271604938272,46.32098765432099,0)" xlink:href="#bk"/><use transform="matrix(0.04938271604938272,0,0,0.04938271604938272,56.19753086419754,0)" xlink:href="#aX"/><use transform="matrix(0.04938271604938272,0,0,0.04938271604938272,60.09876543209877,0)" xlink:href="#aY"/><use transform="matrix(0.04938271604938272,0,0,0.04938271604938272,64,0)" xlink:href="#aW"/></g><path fill="#333" d="M108 0H70L1-190h34L89-25l56-165h34" id="bv"/><g id="ae"><use transform="matrix(0.04938271604938272,0,0,0.04938271604938272,0,0)" xlink:href="#aP"/><use transform="matrix(0.04938271604938272,0,0,0.04938271604938272,12.790123456790125,0)" xlink:href="#ap"/><use transform="matrix(0.04938271604938272,0,0,0.04938271604938272,22.66666666666667,0)" xlink:href="#bk"/><use transform="matrix(0.04938271604938272,0,0,0.04938271604938272,32.543209876543216,0)" xlink:href="#aT"/><use transform="matrix(0.04938271604938272,0,0,0.04938271604938272,42.41975308641976,0)" xlink:href="#aQ"/><use transform="matrix(0.04938271604938272,0,0,0.04938271604938272,52.2962962962963,0)" xlink:href="#bv"/><use transform="matrix(0.04938271604938272,0,0,0.04938271604938272,61.18518518518519,0)" xlink:href="#ar"/></g><g id="af"><use transform="matrix(0.04938271604938272,0,0,0.04938271604938272,0,0)" xlink:href="#bm"/><use transform="matrix(0.04938271604938272,0,0,0.04938271604938272,12.790123456790125,0)" xlink:href="#ap"/><use transform="matrix(0.04938271604938272,0,0,0.04938271604938272,22.66666666666667,0)" xlink:href="#bh"/><use transform="matrix(0.04938271604938272,0,0,0.04938271604938272,31.555555555555557,0)" xlink:href="#aq"/><use transform="matrix(0.04938271604938272,0,0,0.04938271604938272,36.49382716049384,0)" xlink:href="#ap"/></g><g id="ag"><use transform="matrix(0.05,0,0,0.05,0,0)" xlink:href="#aw"/><use transform="matrix(0.05,0,0,0.05,10,0)" xlink:href="#aF"/><use transform="matrix(0.05,0,0,0.05,20,0)" xlink:href="#az"/><use transform="matrix(0.05,0,0,0.05,25.950000000000003,0)" xlink:href="#aG"/><use transform="matrix(0.05,0,0,0.05,35.95,0)" xlink:href="#aK"/></g><path d="M27 0v-27h64v-190l-56 39v-29l58-41h29v221h61V0H27" id="bw"/><g id="ah"><use transform="matrix(0.05,0,0,0.05,0,0)" xlink:href="#aZ"/><use transform="matrix(0.05,0,0,0.05,9,0)" xlink:href="#aw"/><use transform="matrix(0.05,0,0,0.05,19,0)" xlink:href="#az"/><use transform="matrix(0.05,0,0,0.05,24.95,0)" xlink:href="#aH"/><use transform="matrix(0.05,0,0,0.05,33.95,0)" xlink:href="#aE"/><use transform="matrix(0.05,0,0,0.05,43.95,0)" xlink:href="#aw"/><use transform="matrix(0.05,0,0,0.05,53.95,0)" xlink:href="#az"/><use transform="matrix(0.05,0,0,0.05,59.900000000000006,0)" xlink:href="#ba"/><use transform="matrix(0.05,0,0,0.05,65.85000000000001,0)" xlink:href="#bw"/><use transform="matrix(0.05,0,0,0.05,75.85000000000001,0)" xlink:href="#bc"/><use transform="matrix(0.05,0,0,0.05,85.85000000000001,0)" xlink:href="#bc"/><use transform="matrix(0.05,0,0,0.05,95.85000000000001,0)" xlink:href="#bd"/></g><path fill="#333" d="M34 0v-190h32V0H34" id="bx"/><path fill="#333" d="M160-131c35 5 61 23 61 61C221 17 115-2 30 0v-248c76 3 177-17 177 60 0 33-19 50-47 57zm-97-11c50-1 110 9 110-42 0-47-63-36-110-37v79zm0 115c55-2 124 14 124-45 0-56-70-42-124-44v89" id="by"/><g id="ai"><use transform="matrix(0.04938271604938272,0,0,0.04938271604938272,0,0)" xlink:href="#bm"/><use transform="matrix(0.04938271604938272,0,0,0.04938271604938272,12.790123456790125,0)" xlink:href="#ap"/><use transform="matrix(0.04938271604938272,0,0,0.04938271604938272,22.66666666666667,0)" xlink:href="#bh"/><use transform="matrix(0.04938271604938272,0,0,0.04938271604938272,31.555555555555557,0)" xlink:href="#aq"/><use transform="matrix(0.04938271604938272,0,0,0.04938271604938272,36.49382716049384,0)" xlink:href="#ap"/><use transform="matrix(0.04938271604938272,0,0,0.04938271604938272,46.37037037037038,0)" xlink:href="#bm"/><use transform="matrix(0.04938271604938272,0,0,0.04938271604938272,59.16049382716051,0)" xlink:href="#ap"/><use transform="matrix(0.04938271604938272,0,0,0.04938271604938272,69.03703703703705,0)" xlink:href="#bh"/><use transform="matrix(0.04938271604938272,0,0,0.04938271604938272,77.92592592592594,0)" xlink:href="#aq"/><use transform="matrix(0.04938271604938272,0,0,0.04938271604938272,82.8641975308642,0)" xlink:href="#ap"/><use transform="matrix(0.04938271604938272,0,0,0.04938271604938272,92.74074074074075,0)" xlink:href="#aX"/><use transform="matrix(0.04938271604938272,0,0,0.04938271604938272,96.64197530864199,0)" xlink:href="#bx"/><use transform="matrix(0.04938271604938272,0,0,0.04938271604938272,101.58024691358025,0)" xlink:href="#aW"/><use transform="matrix(0.04938271604938272,0,0,0.04938271604938272,110.46913580246914,0)" xlink:href="#by"/><use transform="matrix(0.04938271604938272,0,0,0.04938271604938272,122.320987654321,0)" xlink:href="#aQ"/><use transform="matrix(0.04938271604938272,0,0,0.04938271604938272,132.19753086419752,0)" xlink:href="#aX"/><use transform="matrix(0.04938271604938272,0,0,0.04938271604938272,136.09876543209876,0)" xlink:href="#aY"/><use transform="matrix(0.04938271604938272,0,0,0.04938271604938272,140,0)" xlink:href="#as"/><use transform="matrix(0.04938271604938272,0,0,0.04938271604938272,145.87654320987653,0)" xlink:href="#aq"/><use transform="matrix(0.04938271604938272,0,0,0.04938271604938272,150.8148148148148,0)" xlink:href="#aY"/><use transform="matrix(0.04938271604938272,0,0,0.04938271604938272,154.71604938271605,0)" xlink:href="#aX"/><use transform="matrix(0.04938271604938272,0,0,0.04938271604938272,158.6172839506173,0)" xlink:href="#aQ"/><use transform="matrix(0.04938271604938272,0,0,0.04938271604938272,168.49382716049382,0)" xlink:href="#as"/><use transform="matrix(0.04938271604938272,0,0,0.04938271604938272,174.37037037037035,0)" xlink:href="#aY"/></g><g id="aj"><use transform="matrix(0.05,0,0,0.05,0,0)" xlink:href="#bf"/><use transform="matrix(0.05,0,0,0.05,10,0)" xlink:href="#aG"/><use transform="matrix(0.05,0,0,0.05,20,0)" xlink:href="#aI"/><use transform="matrix(0.05,0,0,0.05,23.95,0)" xlink:href="#aD"/><use transform="matrix(0.05,0,0,0.05,27.899999999999995,0)" xlink:href="#az"/><use transform="matrix(0.05,0,0,0.05,33.85,0)" xlink:href="#ax"/><use transform="matrix(0.05,0,0,0.05,38.85,0)" xlink:href="#aD"/><use transform="matrix(0.05,0,0,0.05,42.800000000000004,0)" xlink:href="#aA"/><use transform="matrix(0.05,0,0,0.05,52.800000000000004,0)" xlink:href="#aD"/><use transform="matrix(0.05,0,0,0.05,56.75,0)" xlink:href="#aF"/></g><g id="ak"><use transform="matrix(0.04938271604938272,0,0,0.04938271604938272,0,0)" xlink:href="#bm"/><use transform="matrix(0.04938271604938272,0,0,0.04938271604938272,12.790123456790125,0)" xlink:href="#ap"/><use transform="matrix(0.04938271604938272,0,0,0.04938271604938272,22.66666666666667,0)" xlink:href="#bh"/><use transform="matrix(0.04938271604938272,0,0,0.04938271604938272,31.555555555555557,0)" xlink:href="#aq"/><use transform="matrix(0.04938271604938272,0,0,0.04938271604938272,36.49382716049384,0)" xlink:href="#ap"/><use transform="matrix(0.04938271604938272,0,0,0.04938271604938272,46.37037037037038,0)" xlink:href="#aX"/><use transform="matrix(0.04938271604938272,0,0,0.04938271604938272,50.271604938271615,0)" xlink:href="#bx"/><use transform="matrix(0.04938271604938272,0,0,0.04938271604938272,55.209876543209894,0)" xlink:href="#aW"/><use transform="matrix(0.04938271604938272,0,0,0.04938271604938272,64.09876543209877,0)" xlink:href="#by"/><use transform="matrix(0.04938271604938272,0,0,0.04938271604938272,75.95061728395062,0)" xlink:href="#aQ"/><use transform="matrix(0.04938271604938272,0,0,0.04938271604938272,85.82716049382717,0)" xlink:href="#aX"/><use transform="matrix(0.04938271604938272,0,0,0.04938271604938272,89.7283950617284,0)" xlink:href="#aY"/><use transform="matrix(0.04938271604938272,0,0,0.04938271604938272,93.62962962962965,0)" xlink:href="#as"/><use transform="matrix(0.04938271604938272,0,0,0.04938271604938272,99.50617283950619,0)" xlink:href="#aq"/><use transform="matrix(0.04938271604938272,0,0,0.04938271604938272,104.44444444444446,0)" xlink:href="#aY"/><use transform="matrix(0.04938271604938272,0,0,0.04938271604938272,108.34567901234568,0)" xlink:href="#aX"/><use transform="matrix(0.04938271604938272,0,0,0.04938271604938272,112.24691358024694,0)" xlink:href="#aQ"/><use transform="matrix(0.04938271604938272,0,0,0.04938271604938272,122.12345679012348,0)" xlink:href="#as"/><use transform="matrix(0.04938271604938272,0,0,0.04938271604938272,128.00000000000003,0)" xlink:href="#aY"/></g><g id="al"><use transform="matrix(0.05,0,0,0.05,0,0)" xlink:href="#bf"/><use transform="matrix(0.05,0,0,0.05,10,0)" xlink:href="#aG"/><use transform="matrix(0.05,0,0,0.05,20,0)" xlink:href="#aI"/><use transform="matrix(0.05,0,0,0.05,23.95,0)" xlink:href="#aD"/><use transform="matrix(0.05,0,0,0.05,27.899999999999995,0)" xlink:href="#az"/><use transform="matrix(0.05,0,0,0.05,33.85,0)" xlink:href="#ax"/><use transform="matrix(0.05,0,0,0.05,38.85,0)" xlink:href="#aD"/></g><g id="am"><use transform="matrix(0.04938271604938272,0,0,0.04938271604938272,0,0)" xlink:href="#be"/><use transform="matrix(0.04938271604938272,0,0,0.04938271604938272,4.938271604938272,0)" xlink:href="#bh"/><use transform="matrix(0.04938271604938272,0,0,0.04938271604938272,13.827160493827162,0)" xlink:href="#aX"/><use transform="matrix(0.04938271604938272,0,0,0.04938271604938272,17.728395061728396,0)" xlink:href="#aQ"/><use transform="matrix(0.04938271604938272,0,0,0.04938271604938272,27.60493827160494,0)" xlink:href="#aU"/></g><g id="an"><use transform="matrix(0.05,0,0,0.05,0,0)" xlink:href="#ax"/><use transform="matrix(0.05,0,0,0.05,5,0)" xlink:href="#aD"/><use transform="matrix(0.05,0,0,0.05,8.95,0)" xlink:href="#bf"/><use transform="matrix(0.05,0,0,0.05,18.95,0)" xlink:href="#bf"/><use transform="matrix(0.05,0,0,0.05,28.950000000000003,0)" xlink:href="#aD"/><use transform="matrix(0.05,0,0,0.05,32.9,0)" xlink:href="#aA"/><use transform="matrix(0.05,0,0,0.05,42.9,0)" xlink:href="#aw"/><use transform="matrix(0.05,0,0,0.05,52.900000000000006,0)" xlink:href="#aF"/></g></defs></g></svg>